<?xml version="1.0" encoding="utf-8"?>
<!-- Generator: Adobe Illustrator 21.0.0, SVG Export Plug-In . SVG Version: 6.00 Build 0)  -->
<svg version="1.1" id="Camada_1" xmlns="http://www.w3.org/2000/svg" xmlns:xlink="http://www.w3.org/1999/xlink" x="0px" y="0px"
	 viewBox="0 0 40 40" style="enable-background:new 0 0 40 40;" xml:space="preserve">
<path d="M24.6,20c0,2.5-2.1,4.6-4.6,4.6s-4.6-2.1-4.6-4.6s2.1-4.6,4.6-4.6S24.6,17.5,24.6,20z M40,8.8v22.4c0,4.8-4,8.8-8.8,8.8H8.8
	C4,40,0,36,0,31.2V8.8C0,4,4,0,8.8,0h22.4C36,0,40,4,40,8.8z M33.7,14.1c0-4.3-3.5-7.8-7.8-7.8H14.1c-4.3,0-7.8,3.5-7.8,7.8v11.7
	c0,4.3,3.5,7.8,7.8,7.8h11.7c4.3,0,7.8-3.4,7.8-7.7L33.7,14.1z M31.3,14.1v11.8c0,2.9-2.4,5.4-5.4,5.4H14.1c-3,0-5.4-2.4-5.4-5.4
	V14.1c0-3,2.4-5.4,5.4-5.4h11.8C28.9,8.7,31.3,11.1,31.3,14.1z M27,20c0-3.7-3.1-6.9-7-6.9c-3.7,0-6.9,3-6.9,6.9s3,7,6.9,7
	S27,23.9,27,20z M29,12.6c0-0.9-0.8-1.7-1.7-1.7c-0.9,0-1.7,0.8-1.7,1.7c0,0.9,0.7,1.7,1.7,1.7C28.2,14.3,29,13.5,29,12.6z"/>
</svg>
