<?xml version="1.0" encoding="utf-8"?>
<!-- Generator: Adobe Illustrator 21.0.0, SVG Export Plug-In . SVG Version: 6.00 Build 0)  -->
<svg version="1.1" id="Camada_1" xmlns="http://www.w3.org/2000/svg" xmlns:xlink="http://www.w3.org/1999/xlink" x="0px" y="0px"
	 viewBox="0 0 80 80" style="enable-background:new 0 0 80 80;" xml:space="preserve">
<path id="instagram" d="M62.4,0H17.6C7.9,0,0,7.9,0,17.6v44.8C0,72.1,7.9,80,17.6,80h44.8C72.1,80,80,72.1,80,62.4V17.6
	C80,7.9,72.1,0,62.4,0z M67.2,51.7c0,8.5-7,15.5-15.5,15.5H28.3c-8.5,0-15.5-7-15.5-15.5V28.3c0-8.5,7-15.5,15.5-15.5h23.5
	c8.5,0,15.5,7,15.5,15.5V51.7z M51.7,17.4H28.3c-6,0-10.8,4.9-10.8,10.8v23.5c0,6,4.9,10.8,10.8,10.8h23.5c6,0,10.8-4.9,10.8-10.8
	V28.3C62.6,22.3,57.7,17.4,51.7,17.4z M40,53.9c-7.7,0-13.9-6.3-13.9-13.9c0-7.7,6.3-13.9,13.9-13.9c7.7,0,13.9,6.3,13.9,13.9
	C53.9,47.7,47.7,53.9,40,53.9z M54.5,28.6c-1.9,0-3.4-1.5-3.4-3.4c0-1.9,1.5-3.4,3.4-3.4c1.9,0,3.4,1.5,3.4,3.4
	C57.9,27.1,56.4,28.6,54.5,28.6z M49.3,40c0,5.1-4.2,9.3-9.3,9.3c-5.1,0-9.3-4.2-9.3-9.3s4.2-9.3,9.3-9.3
	C45.1,30.7,49.3,34.9,49.3,40z"/>
</svg>
