<?xml version="1.0" encoding="utf-8"?>
<!-- Generator: Adobe Illustrator 21.0.0, SVG Export Plug-In . SVG Version: 6.00 Build 0)  -->
<svg version="1.1" id="Camada_1" xmlns="http://www.w3.org/2000/svg" xmlns:xlink="http://www.w3.org/1999/xlink" x="0px" y="0px"
	 viewBox="0 0 80 80" style="enable-background:new 0 0 80 80;" xml:space="preserve">
<path id="mail" d="M62.4,0H17.6C7.9,0,0,7.9,0,17.6v44.8C0,72.1,7.9,80,17.6,80h44.8C72.1,80,80,72.1,80,62.4V17.6
	C80,7.9,72.1,0,62.4,0z M50.6,53.5c-3.4,0-6.1-0.8-6.5-4.2c-2,2.8-5.5,4.6-8.8,4.6c-6.6,0-10.2-4.5-10.2-11.2
	c0-9.9,7-16.8,14.8-16.8c3.2,0,5.8,1.3,7.2,3.4c0.1-0.6,0.1-0.9,0.3-1.5c0.1-0.3,0.2-0.6,0.5-0.8c0.2-0.2,0.5-0.3,0.8-0.3h4.3
	c0.8,0,1.5,0.8,1.3,1.6L51,44.7c-0.4,2.1-0.3,3.5,1.8,3.5c4.5,0,9.1-3.9,9.1-10.8C62,25.2,52,18,40,18c-12.1,0-22,9.9-22,22
	c0,12.1,9.9,22,22,22c4.6,0,9.2-1.5,12.9-4.2c0.6-0.4,1.4-0.3,1.8,0.2l1.7,2c0.5,0.6,0.4,1.4-0.2,1.9c-4.7,3.4-10.3,5.3-16.1,5.3
	C25,67.2,12.8,55,12.8,40C12.8,25,25,12.8,40,12.8c15.2,0,27.2,9.6,27.2,24.6C67.2,46.6,61.5,53.5,50.6,53.5z M45.3,37.7
	c0,5.1-3.6,10.3-8.2,10.3c-3.1,0-5-2.1-5-5.7c0-6.3,4.3-10.3,8.2-10.3C43.7,32.1,45.3,34.4,45.3,37.7z"/>
</svg>
