<?xml version="1.0" encoding="utf-8"?>
<!-- Generator: Adobe Illustrator 21.0.0, SVG Export Plug-In . SVG Version: 6.00 Build 0)  -->
<svg version="1.1" id="Camada_1" xmlns="http://www.w3.org/2000/svg" xmlns:xlink="http://www.w3.org/1999/xlink" x="0px" y="0px"
	 viewBox="0 0 40 40" style="enable-background:new 0 0 40 40;" xml:space="preserve">
<path d="M22.6,18.9c0,2.5-1.8,5.1-4.1,5.1C17,24,16,23,16,21.1c0-3.1,2.1-5.1,4.1-5.1C21.9,16,22.6,17.2,22.6,18.9z M40,8.8v22.4
	c0,4.8-4,8.8-8.8,8.8H8.8C4,40,0,36,0,31.2V8.8C0,4,4,0,8.8,0h22.4C36,0,40,4,40,8.8z M33.6,18.7c0-7.5-6-12.3-13.6-12.3
	c-7.5,0-13.5,6.2-13.5,13.7s6.1,13.6,13.6,13.6c3,0,5.7-1,8.1-2.7c0.3-0.3,0.4-0.7,0.1-1l-0.9-1c-0.2-0.2-0.6-0.3-0.9-0.1
	C24.6,30.2,22.3,31,20,31c-6.1,0-11-4.9-11-11S13.9,9,20,9c6,0,11,3.6,10.9,9.8c0,3.4-2.3,5.4-4.6,5.4c-1,0-1.1-0.8-0.9-1.8l1.6-8.2
	c0.2-0.4-0.2-0.8-0.6-0.8h-2.1c-0.1,0-0.3,0-0.4,0.1c-0.2,0.1-0.3,0.3-0.3,0.4c-0.1,0.4-0.1,0.5-0.1,0.8c-0.7-1.1-2-1.7-3.6-1.7
	c-3.9,0-7.4,3.4-7.4,8.4c0,3.3,1.8,5.6,5.1,5.6c1.6,0,3.4-0.9,4.4-2.3c0.3,1.7,1.6,2.1,3.3,2.1C30.8,26.8,33.6,23.3,33.6,18.7z"/>
</svg>
