<?xml version="1.0" encoding="utf-8"?>
<!-- Generator: Adobe Illustrator 21.0.0, SVG Export Plug-In . SVG Version: 6.00 Build 0)  -->
<svg version="1.1" id="Camada_1" xmlns="http://www.w3.org/2000/svg" xmlns:xlink="http://www.w3.org/1999/xlink" x="0px" y="0px"
	 viewBox="0 0 86.2 7.9" style="enable-background:new 0 0 86.2 7.9;" xml:space="preserve">
<g>
	<path d="M56.8,0.9c-0.2,0-0.3,0-0.4,0.1c-0.1,0-0.2,0.1-0.3,0.2c-0.1,0.1-0.1,0.3-0.1,0.6V6c0,0.2,0,0.4,0,0.6s0,0.3,0,0.4
		c0.1,0,0.3,0,0.4,0c0.2,0,0.3,0,0.4,0v0.8h-3.1V7C53.9,7,54,7,54.2,7c0.1,0,0.2-0.1,0.3-0.2c0.1-0.1,0.1-0.3,0.1-0.6V2
		c0-0.2,0-0.4,0-0.6c0-0.2,0-0.3,0-0.4c-0.1,0-0.3,0-0.4,0s-0.3,0-0.4,0V0.2h3.1V0.9z M60.5,4c-0.1,0-0.2,0-0.2,0V1.8
		c0-0.3,0-0.4,0.1-0.6C60.4,1.1,60.5,1,60.6,1c0.1,0,0.2-0.1,0.4-0.1c0.1,0,0.2,0,0.4,0s0.3,0.1,0.5,0.2s0.3,0.2,0.4,0.4
		c0.1,0.2,0.2,0.5,0.2,0.8c0,0.4-0.1,0.7-0.2,0.9c-0.1,0.2-0.3,0.4-0.5,0.5C61.5,4,61.2,4,60.8,4C60.7,4,60.6,4,60.5,4z M61.1,7.8
		V6.9c-0.1,0-0.1,0-0.3,0c-0.1,0-0.2,0-0.4,0s-0.2,0-0.3,0c0-0.1,0-0.2,0-0.4s0-0.4,0-0.6V4.8c0.1,0,0.2,0,0.3,0s0.2,0,0.3,0
		C60.9,4.9,61,5,61,5.1c0.1,0.1,0.1,0.2,0.2,0.4l0.8,1.3c0.1,0.2,0.3,0.4,0.4,0.6c0.1,0.2,0.3,0.3,0.4,0.4h1.8V7
		c-0.2,0-0.3,0-0.4-0.1c-0.1-0.1-0.2-0.2-0.4-0.3c-0.1-0.1-0.3-0.3-0.4-0.6l-0.5-0.8c-0.1-0.1-0.2-0.3-0.3-0.4
		c-0.1-0.1-0.3-0.2-0.4-0.3c0.4-0.1,0.8-0.3,1.1-0.5s0.5-0.5,0.6-0.7c0.1-0.3,0.2-0.6,0.2-0.9c0-0.6-0.1-1-0.4-1.4s-0.6-0.6-1.1-0.7
		c-0.5-0.2-1-0.2-1.7-0.2c-0.5,0-1,0-1.5,0c-0.5,0-1,0-1.5,0V1c0.1,0,0.2,0,0.4,0s0.3,0,0.4,0c0,0.1,0,0.2,0,0.4c0,0.2,0,0.4,0,0.6
		v4.1c0,0.3,0,0.5-0.1,0.6c-0.1,0.1-0.1,0.2-0.3,0.2C58.2,7,58.1,7,57.9,7v0.7H61.1z M69.7,5.2V2.5h-0.8l0,0.9h-1.3V1.8
		c0-0.3,0-0.5,0.1-0.6C67.8,1.1,67.9,1,68,1c0.1,0,0.2-0.1,0.4-0.1l0.4,0c0.2,0,0.4,0,0.6,0.1s0.4,0.2,0.5,0.4
		c0.1,0.2,0.2,0.5,0.2,0.9h0.7l-0.1-2.1h-5.4V1c0.1,0,0.2,0,0.4,0s0.3,0,0.4,0c0,0.1,0,0.2,0,0.4c0,0.2,0,0.4,0,0.6v4.1
		c0,0.3,0,0.5-0.1,0.6C66,6.9,65.9,6.9,65.8,7C65.6,7,65.5,7,65.3,7v0.7H71l0.1-2.4h-0.7c0,0.4-0.1,0.7-0.2,0.9s-0.3,0.4-0.5,0.5
		c-0.2,0.1-0.4,0.1-0.6,0.1h-1.4c0-0.1,0-0.2,0-0.4s0-0.4,0-0.6V4.2l0.3,0c0.2,0,0.4,0,0.5,0s0.3,0.1,0.4,0.3C69,4.6,69,4.9,69,5.2
		H69.7z M78.7,7.9v-6c0-0.3,0-0.5,0.1-0.6C78.9,1.1,79,1,79.1,1c0.1,0,0.3-0.1,0.4-0.1V0.2h-2.5V1c0.1,0,0.2,0,0.4,0s0.3,0,0.4,0
		c0,0.1,0,0.2,0,0.4s0,0.4,0,0.6v3.4h0c-0.1-0.1-0.2-0.3-0.3-0.4s-0.3-0.4-0.4-0.6l-3.3-4.2h-1.7V1c0.1,0,0.2,0,0.4,0s0.3,0,0.4,0
		c0,0.1,0,0.2,0,0.4s0,0.4,0,0.6l0,4.1c0,0.3,0,0.5-0.1,0.6c-0.1,0.1-0.1,0.2-0.3,0.2C72.4,7,72.3,7,72.1,7v0.7h2.5V6.9
		c-0.1,0-0.2,0-0.4,0c-0.2,0-0.3,0-0.4,0c0-0.1,0-0.2,0-0.4s0-0.4,0-0.6l0-3.3h0c0.1,0.1,0.2,0.3,0.3,0.4c0.1,0.1,0.2,0.3,0.3,0.4
		l3.5,4.4H78.7z M84.8,5.2V2.5H84l0,0.9h-1.3V1.8c0-0.3,0-0.5,0.1-0.6C82.9,1.1,83,1,83.1,1c0.1,0,0.2-0.1,0.4-0.1l0.4,0
		c0.2,0,0.4,0,0.6,0.1s0.4,0.2,0.5,0.4c0.1,0.2,0.2,0.5,0.2,0.9h0.7l-0.1-2.1h-5.4V1c0.1,0,0.2,0,0.4,0s0.3,0,0.4,0
		c0,0.1,0,0.2,0,0.4c0,0.2,0,0.4,0,0.6v4.1c0,0.3,0,0.5-0.1,0.6C81,6.9,81,6.9,80.8,7C80.7,7,80.6,7,80.4,7v0.7h5.7l0.1-2.4h-0.7
		c0,0.4-0.1,0.7-0.2,0.9S85,6.7,84.8,6.8c-0.2,0.1-0.4,0.1-0.6,0.1h-1.4c0-0.1,0-0.2,0-0.4s0-0.4,0-0.6V4.2l0.3,0c0.2,0,0.4,0,0.5,0
		s0.3,0.1,0.4,0.3c0.1,0.1,0.1,0.4,0.1,0.7H84.8z"/>
	<path d="M2.3,4.7h1.8L3.6,3.4C3.5,3.1,3.5,2.9,3.4,2.6C3.3,2.3,3.3,2.1,3.2,1.9h0c0,0.1-0.1,0.3-0.1,0.6C3,2.7,2.9,3,2.8,3.3
		L2.3,4.7z M0,7.8V7C0.2,7,0.4,7,0.5,6.8c0.1-0.1,0.2-0.3,0.3-0.5C0.9,6.2,1,6,1,5.8L3.1,0h0.8l2.3,5.9c0,0.1,0.1,0.3,0.2,0.5
		C6.4,6.6,6.5,6.8,6.5,7c0.1,0,0.2,0,0.4,0c0.1,0,0.2,0,0.3,0v0.8H4.2V7c0.2,0,0.3,0,0.4-0.1c0.1-0.1,0.1-0.2,0.1-0.3
		c0-0.1,0-0.3-0.1-0.5L4.4,5.5l-2.3,0L1.9,6.1c0,0.1-0.1,0.2-0.2,0.4C1.7,6.7,1.6,6.8,1.5,6.9c0.1,0,0.3,0,0.4,0c0.2,0,0.3,0,0.4,0
		v0.9H0z M11.6,7.9c-0.2-0.6-0.5-1.2-0.7-1.8c-0.2-0.6-0.5-1.2-0.7-1.8C10.1,4.2,10,4,9.9,3.7S9.7,3.2,9.6,2.9
		c-0.1-0.3-0.2-0.7-0.3-1c0,0.4,0,0.8,0,1.1s0,0.7,0,1c0,0.2,0,0.3,0,0.5s0,0.3,0,0.5s0,0.3,0,0.5s0,0.3,0,0.5c0,0.2,0,0.4,0,0.6
		c0,0.2,0,0.3,0,0.4c0.1,0,0.3,0,0.4,0c0.2,0,0.3,0,0.4,0v0.8H7.7V7C7.8,7,8,7,8.1,7c0.1,0,0.2-0.1,0.3-0.2c0.1-0.1,0.1-0.3,0.1-0.6
		L8.5,2c0-0.2,0-0.4,0-0.6s0-0.3,0-0.4C8.4,1,8.3,1,8.1,1C8,1,7.8,1,7.7,1V0.2h2.4l1.6,4.2C11.8,4.5,11.9,4.7,12,5s0.2,0.4,0.2,0.6
		c0.1,0.2,0.1,0.4,0.2,0.5h0c0.1-0.3,0.2-0.5,0.3-0.7c0.1-0.2,0.2-0.5,0.2-0.7c0.3-0.7,0.6-1.5,0.8-2.2s0.6-1.5,0.8-2.2h2.5v0.7
		c-0.2,0-0.3,0-0.4,0.1c-0.1,0-0.2,0.1-0.3,0.2c-0.1,0.1-0.1,0.3-0.1,0.6L16.4,6c0,0.2,0,0.4,0,0.6s0,0.3,0,0.4c0.1,0,0.3,0,0.4,0
		c0.2,0,0.3,0,0.4,0v0.8h-3V7c0.2,0,0.3,0,0.4-0.1s0.2-0.1,0.3-0.2C15,6.6,15,6.4,15,6.1l-0.1-2.3c0-0.1,0-0.2,0-0.4s0-0.4,0-0.7
		c0-0.3,0-0.5,0-0.7c0,0.1,0,0.1-0.1,0.1c0,0,0,0.1-0.1,0.1l-2.1,5.6H11.6z M20.1,4.7h1.8l-0.5-1.4c-0.1-0.3-0.2-0.5-0.2-0.8
		C21,2.3,21,2.1,20.9,1.9h0c0,0.1-0.1,0.3-0.1,0.6c-0.1,0.2-0.1,0.5-0.3,0.9L20.1,4.7z M17.7,7.8V7c0.2,0,0.4-0.1,0.5-0.2
		c0.1-0.1,0.2-0.3,0.3-0.5c0.1-0.2,0.2-0.4,0.2-0.6L20.9,0h0.8l2.3,5.9C24,6,24,6.2,24.1,6.4c0.1,0.2,0.1,0.4,0.1,0.6
		c0.1,0,0.2,0,0.4,0c0.1,0,0.2,0,0.3,0v0.8h-2.9V7c0.2,0,0.3,0,0.4-0.1c0.1-0.1,0.1-0.2,0.1-0.3c0-0.1,0-0.3-0.1-0.5l-0.2-0.6
		l-2.3,0l-0.2,0.5c0,0.1-0.1,0.2-0.2,0.4c-0.1,0.2-0.1,0.3-0.2,0.5c0.1,0,0.3,0,0.4,0c0.2,0,0.3,0,0.4,0v0.9H17.7z M31.2,7.9
		l-3.5-4.4c-0.1-0.1-0.2-0.3-0.3-0.4c-0.1-0.1-0.2-0.3-0.3-0.4h0l0,3.3c0,0.2,0,0.4,0,0.6s0,0.3,0,0.4c0.1,0,0.3,0,0.4,0
		c0.2,0,0.3,0,0.4,0v0.8h-2.5V7c0.2,0,0.3,0,0.4-0.1c0.1,0,0.2-0.1,0.3-0.2c0.1-0.1,0.1-0.3,0.1-0.6l0-4.1c0-0.2,0-0.4,0-0.6
		c0-0.2,0-0.3,0-0.4c-0.1,0-0.3,0-0.4,0s-0.3,0-0.4,0V0.2h1.7l3.3,4.2c0.2,0.2,0.3,0.4,0.4,0.6c0.1,0.2,0.2,0.3,0.3,0.4h0V2
		c0-0.2,0-0.4,0-0.6c0-0.2,0-0.3,0-0.4c-0.1,0-0.3,0-0.4,0c-0.2,0-0.3,0-0.4,0V0.2h2.5v0.7c-0.2,0-0.3,0-0.4,0.1
		c-0.1,0-0.2,0.1-0.3,0.2c-0.1,0.1-0.1,0.3-0.1,0.6v6H31.2z M36.1,6c0,0.2,0,0.4,0,0.6s0,0.3,0,0.4c0.1,0,0.2,0,0.3,0s0.3,0,0.4,0
		c0.1,0,0.2,0,0.3,0c0.4,0,0.7-0.1,1-0.2c0.3-0.2,0.5-0.4,0.7-0.6c0.2-0.3,0.3-0.6,0.4-0.9s0.1-0.7,0.1-1c0-0.7-0.1-1.3-0.3-1.8
		c-0.2-0.5-0.5-0.8-0.8-1c-0.4-0.2-0.8-0.4-1.3-0.4c-0.2,0-0.3,0-0.4,0s-0.2,0.1-0.3,0.3c-0.1,0.1-0.1,0.3-0.1,0.6V6z M33.8,7
		C34,7,34.1,7,34.2,7c0.1,0,0.2-0.1,0.3-0.2c0.1-0.1,0.1-0.3,0.1-0.6V2c0-0.2,0-0.4,0-0.6c0-0.2,0-0.3,0-0.4c-0.1,0-0.3,0-0.4,0
		s-0.3,0-0.4,0V0.2l3.1,0c0.7,0,1.3,0.1,1.9,0.3c0.5,0.2,1,0.5,1.3,0.9c0.3,0.4,0.6,0.8,0.8,1.2C41,3,41.1,3.5,41.1,3.9
		c0,0.4-0.1,0.9-0.2,1.3c-0.2,0.5-0.4,0.9-0.7,1.2c-0.3,0.4-0.8,0.7-1.3,0.9s-1.2,0.4-1.9,0.4h-3.1V7z M43.5,4.7h1.8l-0.5-1.4
		c-0.1-0.3-0.2-0.5-0.2-0.8c-0.1-0.3-0.1-0.5-0.2-0.7h0c0,0.1-0.1,0.3-0.1,0.6C44.2,2.7,44.1,3,44,3.3L43.5,4.7z M41.2,7.8V7
		c0.2,0,0.4-0.1,0.5-0.2c0.1-0.1,0.2-0.3,0.3-0.5c0.1-0.2,0.2-0.4,0.2-0.6L44.3,0h0.8l2.3,5.9c0,0.1,0.1,0.3,0.2,0.5
		c0.1,0.2,0.1,0.4,0.1,0.6c0.1,0,0.2,0,0.4,0c0.1,0,0.2,0,0.3,0v0.8h-2.9V7c0.2,0,0.3,0,0.4-0.1c0.1-0.1,0.1-0.2,0.1-0.3
		c0-0.1,0-0.3-0.1-0.5l-0.2-0.6l-2.3,0l-0.2,0.5c0,0.1-0.1,0.2-0.2,0.4c-0.1,0.2-0.1,0.3-0.2,0.5c0.1,0,0.3,0,0.4,0s0.3,0,0.4,0v0.9
		H41.2z"/>
</g>
</svg>
