<?xml version="1.0" encoding="utf-8"?>
<!-- Generator: Adobe Illustrator 21.0.0, SVG Export Plug-In . SVG Version: 6.00 Build 0)  -->
<svg version="1.1" id="Camada_1" xmlns="http://www.w3.org/2000/svg" xmlns:xlink="http://www.w3.org/1999/xlink" x="0px" y="0px"
	 viewBox="0 0 285.6 53.6" style="enable-background:new 0 0 285.6 53.6;" xml:space="preserve">
<style type="text/css">
	.st0{fill:#424242;}
</style>
<path class="st0" d="M61.2,33.1c0.1,1.3-0.2,2-1.1,2l-0.8-0.4c1.7-12.8,5-23.8,9.8-33.1l0.8,0.7l0,0.4
	C64.8,15.3,61.9,25.4,61.2,33.1z M66.6,15.8l1.3,0.9l0.8-0.1v-2.3L67,13.8l-0.6,0.8L66.6,15.8z M55,33.1c-1.4,0.7-2.9,1-4.5,1.1
	c-2.7,0.2-4.4-1.4-4.9-4.9c0-3.5,3-6.1,8.9-7.9c2.7-0.4,4.5,0.7,5.3,3.3C60.3,28.3,58.7,31.1,55,33.1z M58.3,25.1
	c-1.1-2.3-3.3-2.7-6.7-1.4l-1.2,0.8l1.7,1L51.3,26l-0.5-0.5c-2.6,0.3-4,1.6-4,3.9c0.8,2.7,2.1,4,4.1,3.7
	C56.3,31.8,58.8,29.2,58.3,25.1z M77.4,2.6l0-0.4l-0.8-0.7c-4.5,8.9-7.7,19.3-9.5,31.2c-1.3,0.2-2-0.1-2.2-1.1
	c-0.5-1.2,0.5-5.2,3-11.9c-0.1-0.8-0.7-1-1.6-0.9L63.8,23l0.1,0.4l0.7,0.6c-1.3,4.2-1.7,6.9-1.3,8c0.4,1.7,1.6,2.4,3.7,2.1
	c0,0.1,0,0.3,0,0.4l0.8,0.4c0.8,0,1.2-0.7,1.1-2C69.4,25.4,72.2,15.3,77.4,2.6z M43.3,6.5c2.3-0.5,3.5-0.4,3.6,0.4
	c-0.4,0.5-0.3,0.8,0.4,1.1c1.1,0.2,1.7-0.1,1.8-1.1V6.2c-0.8-1.6-3.3-1.9-7.6-0.8c-5.9,2.5-9,5.7-9.5,9.8c-0.2,2.8,1.4,4.1,4.8,4.1
	l3.9,0.2c2.4,0.2,3.2,1.8,2.5,4.7c-0.2,2.3-2.3,4.6-6.2,6.9c-8.3,4.1-20.6,7.2-37,9.3v0.6h1.8c10.5-1.2,18.3-2.6,23.4-4.1
	c12-3.4,18.5-7.3,19.4-11.6c1.3-4.1,0.3-6.5-3.1-7.2c-1-0.3-2.8-0.5-5.3-0.4c-2,0.1-2.8-0.9-2.4-2.9C34.3,11.3,37.5,8.5,43.3,6.5z
	 M77.4,10.3h0.8l3.7-4.1c4.1-3.4,6.4-5.5,6.8-6.2h-0.4c-4,1.9-7.6,5-10.9,9.2V10.3z M117.9,16.7l0.8-0.1v-2.3l-1.6-0.5l-0.6,0.8
	l0.2,1.1L117.9,16.7z M284.2,22.3l0.1-2.2l-1.6,3.9c-0.7,1.6-1.1,3.9-1.5,6.7l0,1.7l0,1.1l-0.9,1c-0.6-0.1-0.8-0.6-0.6-1.6l0-0.5
	c-1,1-2.8,1.5-5.3,1.5c-2.4-0.6-3.3-2.6-3-6c0.8-5.9,4.5-9.2,11-9.9l1,0.8l0.2,0.1c0.4-0.4,0.8-0.8,1.3-1l0.7,0.8
	C285.8,21.5,285.4,22.7,284.2,22.3z M281.8,22.3l-0.3,0.1c-0.1,0-0.1,0.1-0.2,0.1l-0.7-0.8l0.8-1.1v-0.4c-3.3,0-5.8,1.5-7.3,4.3
	c-1.4,3.3-1.4,5.8,0,7.7c1.7,0.5,3.7,0.1,5.9-1.1l0-0.5l0-0.5C280.5,26.9,281,24.3,281.8,22.3z M140,26.3c-3.7-1.4-5.6-2.5-5.6-3.1
	v-0.8c1.1-1.3,2.6-1.9,4.5-1.9c0.8,0,1.1,0.2,0.8,0.8l-2.6,2.3h0.8c1.5,0,2.7-0.8,3.7-2.3c0.2-1.1,0-1.8-0.8-2.3
	c-5.5,0-8.2,1.4-8.2,4.1c0.2,1,0.9,1.8,2,2.3c3.9,1.3,5.8,2.5,5.8,3.4v0.8c-1.2,1.9-4,3.4-8.4,4.4c-3.3,0.7-6.9,1-10.7,1l1.1,1.1h3
	c11.3-0.8,16.7-3.4,16.5-7.6C141.6,27.6,140.9,26.9,140,26.3z M177,5.2l0.4,0.3l0.8-0.1c-0.1-1.6-0.7-2.3-1.7-2
	c-4.1,8.6-6.6,15-7.5,19.4c-1,6.4-2.8,9.8-5.2,10.1c-2.2,0-3.2-1.8-2.9-5.5c0.4-2.7,1.7-4.5,3.8-5.4c1.6-0.4,2.4,0.3,2.4,2.3
	l0.6,0.3c0.6-0.5,0.8-1.4,0.7-2.6c-0.2-1-0.9-1.6-2.3-1.6c-3.7,0.3-6,2.7-6.7,7.3c-0.3,3,0.2,5,1.5,6.4c1.9,0.8,3.9,0.6,6-0.5
	l0.6-0.8l-0.2,1.6L168,35l0.4,0c0.2-1.1,0.3-2,0.3-2.7c0.2-1.1,0.6-2.9,1.1-5.4C171.2,19.8,173.6,12.6,177,5.2z M185.4,18.8
	c0.2,2.7-0.3,3.9-1.4,3.6l0.1-2.2l-1.6,3.9c-0.7,1.6-1.1,3.9-1.5,6.7l0,1.7l0,1.1l-0.9,1c-0.6-0.1-0.8-0.6-0.6-1.6l0-0.5
	c-1,1-2.8,1.5-5.3,1.5c-2.4-0.6-3.3-2.6-3-6c0.8-5.9,4.5-9.2,11-9.9l1,0.8l0.2,0.1c0.4-0.4,0.8-0.8,1.3-1L185.4,18.8z M181.6,22.3
	l-0.3,0.1c-0.1,0-0.1,0.1-0.2,0.1l-0.7-0.8l0.8-1.1v-0.4c-3.3,0-5.8,1.5-7.3,4.3c-1.4,3.3-1.4,5.8,0,7.7c1.7,0.5,3.7,0.1,5.9-1.1
	l0-0.5l0-0.5C180.2,26.9,180.8,24.3,181.6,22.3z M84.6,24.7c0.5,3.5-1.2,6.4-4.9,8.3c-1.4,0.7-2.9,1-4.5,1.1
	c-2.7,0.2-4.4-1.4-4.9-4.9c0-3.5,3-6.1,8.9-7.9C82,21.1,83.8,22.2,84.6,24.7z M83.1,25.1c-1.1-2.3-3.3-2.7-6.7-1.4l-1.2,0.8l1.7,1
	L76,26l-0.5-0.5c-2.6,0.3-4,1.6-4,3.9c0.8,2.7,2.1,4,4.1,3.7C81.1,31.8,83.6,29.2,83.1,25.1z M121.5,34.2c-2.7,0.2-4.4-1.4-4.9-4.9
	c0-3.5,3-6.1,8.9-7.9c2.7-0.4,4.5,0.7,5.3,3.3c0.5,3.6-1.1,6.4-4.9,8.4C124.6,33.7,123.1,34.1,121.5,34.2z M121.9,33.1
	c5.5-1.3,8-3.9,7.5-8c-1.1-2.3-3.3-2.7-6.7-1.4l-1.2,0.8l1.7,1l-0.9,0.5l-0.5-0.5c-2.6,0.3-4,1.6-4,3.9
	C118.5,32.1,119.9,33.3,121.9,33.1z M219.6,24.1c-2.7,0.6-4.1,1.1-4.1,1.5c-1.5,3.1-2.4,6-2.6,8.8h-0.4c-0.8,0-0.8-0.9-0.4-2.9
	l1.8-6.2h-0.4l-2.5,0.7l-1.3,2.3c-2.8,4.4-5,6.4-6.8,6.1c-1,0-1.5-1-1.5-2.9c0.6-2.7,1.2-4.1,1.8-4.1h0.4l0.7,0.8v0.4
	c-1,1-1.4,2.5-1.1,4.4c1.5-0.6,3.3-2.5,5.5-5.8l0.4-0.5l-2.2,0.5l-0.4-0.4v-0.4c0-0.8,1.4-1.6,4.1-2.2c5.7-11.7,9-17.7,9.5-18
	l0.8,0.8l-4.8,16.5C218.4,23.4,219.6,23.7,219.6,24.1z M218,13.1l-0.7,0.9l-5.1,10l1.9-0.3C214.7,23.7,216,20.2,218,13.1z
	 M277.3,5.2l0.4,0.3l0.8-0.1c-0.1-1.6-0.7-2.3-1.7-2c-4.1,8.6-6.6,15-7.5,19.4c-1,6.4-2.8,9.8-5.2,10.1c-2.2,0-3.2-1.8-2.9-5.5
	c0.4-2.7,1.7-4.5,3.8-5.4c1.6-0.4,2.4,0.3,2.4,2.3l0.6,0.3c0.6-0.5,0.8-1.4,0.7-2.6c-0.2-1-0.9-1.6-2.3-1.6
	c-2.8,0.2-4.7,1.6-5.8,4.1c0-2-0.7-3.3-2-4c-2.2,0-4.3,1.6-6.4,4.9h-0.4l0.8-3.7c0-0.8-0.2-1.1-0.8-1.1h-0.4l-0.4,0.4
	c-0.2,3.5-1,7.4-2.3,11.6v1.1l0.8,0.8h0.4c0.2,0,0.8-1.6,1.8-4.9c1.7-4.8,3.8-7.1,6-7.1c0.5,0,0.9,0.6,1.1,1.9
	c0,3.3-0.8,6.6-2.4,10.2h1.3c0.8-1.6,1.3-2.9,1.7-4.1c0.1,1.6,0.7,2.8,1.5,3.6c1.9,0.8,3.9,0.6,6-0.5l0.6-0.8l-0.2,1.6l0.8,0.7
	l0.4-0.1c0.2-1.1,0.3-2,0.3-2.7c0.2-1.1,0.6-2.9,1.1-5.4C271.5,19.8,273.9,12.6,277.3,5.2z M249.2,20.2l-1.6,3.9
	c-0.7,1.6-1.1,3.9-1.5,6.7l0,1.7l0,1.1l-0.9,1c-0.6-0.1-0.8-0.6-0.6-1.6l0-0.5c-1,1-2.8,1.5-5.3,1.5c-1.9-0.5-2.9-1.8-3-4.2
	c-0.3,1.1-0.7,2.3-1.2,3.5c-0.3,0.8-0.9,1.1-1.9,0.8v-0.4c1.7-3.6,2.4-6.8,1.9-9.6c-0.8-0.4-3.6,2.9-8.3,9.8h-0.4l-0.8-0.8
	c1.5-6.3,1.9-9.6,1.1-9.9c-0.8,0-3,3.7-6.7,11.2l-1.6-0.6l0.1-0.5c1.7-10.5,3.1-15.7,4.1-15.7l0.8,0.8v0.4c-1,2.4-2,6.2-3.1,11.5
	h0.4c2.1-5.1,4.1-8,6.1-8.5h0.8c1.3,0.3,1.5,2.5,0.8,6.4l-0.2,1.6c2.9-4.9,5.3-7.4,7.3-7.2c1,0.2,1.5,1.1,1.5,2.6c0,0.1,0,0.3,0,0.4
	c1.4-4.3,4.9-6.8,10.4-7.4l1,0.8l0.2,0.1c0.4-0.4,0.8-0.8,1.3-1l0.7,0.8c0.2,2.7-0.3,3.9-1.4,3.6L249.2,20.2z M246.7,22.3l-0.3,0.1
	c-0.1,0-0.1,0.1-0.2,0.1l-0.7-0.8l0.8-1.1v-0.4c-3.3,0-5.8,1.5-7.3,4.3c-1.4,3.3-1.4,5.8,0,7.7c1.7,0.5,3.7,0.1,5.9-1.1l0-0.5l0-0.5
	C245.3,26.9,245.9,24.3,246.7,22.3z M114.9,31.7c-0.5-1.2,0.5-5.2,3-11.9c-0.1-0.8-0.7-1-1.6-0.9l-2.6,4.2l0.1,0.4l0.7,0.6
	c-1.3,4.2-1.7,6.9-1.3,8c0.4,1.7,1.7,2.4,3.8,2.1l0.5-1.6C116,33,115.1,32.7,114.9,31.7z M114.5,19.5c-1.6,4.7-3.1,9.8-4.4,15.3
	l-1-0.6l0.3-2.3c-1.7,1.7-3.5,2.6-5.2,2.6h-0.8l0,0H103c-0.1,0-0.2,0-0.3-0.1c-0.5,0-1-0.1-1.5-0.3c-2.2-0.4-3.9-0.4-5.3-0.1
	l-0.6,1.8c-1.7,7.5-4.8,13.5-9.4,17.7l-0.9,0c4.8-6.1,7.8-12.4,9-19.1h-0.4c-3.3,0.8-4.9,1.7-4.9,3H88L87.6,36l0.8-1.5
	c-3.1-0.8-4.2-3.9-3.3-9.3c0.4-2.2,1.7-4,4-5.4c1.5-0.8,3.1-1.2,4.6-1.1c1.5,0.5,2.3,1.2,2.3,2.3l0.4-0.4h0.4l1.1,1.1v1.5
	c0,1.7-0.5,4.8-1.4,9.2l0.7-0.1c0.7,0,1.4,0,2,0c-0.7-1.1-1.1-2.6-1.2-4.6c0-0.9,0.1-1.7,0.5-2.6c0.6-2,1.9-4.2,4.1-6.5l1.1-0.2
	l0.9,0.6l0.1,0.7c-0.5,1.4-1.5,2.6-3,3.7l-1.6,1c-0.7,1.3-0.9,2.5-0.7,3.6c0.6,3.3,1.9,4.9,4.2,4.8h1.1c3.7-0.2,6.1-4.2,7.2-11.8
	c0.4-1.7,0.8-2.5,1.4-2.4L114.5,19.5z M100.2,23.1l0.4-0.1c0.8-0.7,1.3-1.2,1.2-1.4l-0.8,0.2L100.2,23.1z M95.7,21.4
	c-0.2,1-0.6,1.5-0.9,1.5l-1.3-0.8l0.4-1.1c-0.8-0.8-2.4-0.8-4.5,0.3c-1.6,0.8-2.6,3.2-3,7.4c0.1,2.6,1.2,4,3.4,4.3
	c2.8-0.2,4.6-1.1,5.4-2.8C95.9,26.2,96.1,23.2,95.7,21.4z"/>
</svg>
