<?xml version="1.0" encoding="utf-8"?>
<!-- Generator: Adobe Illustrator 21.0.0, SVG Export Plug-In . SVG Version: 6.00 Build 0)  -->
<svg version="1.1" id="Camada_1" xmlns="http://www.w3.org/2000/svg" xmlns:xlink="http://www.w3.org/1999/xlink" x="0px" y="0px"
	 viewBox="0 0 285.2 53.6" style="enable-background:new 0 0 285.2 53.6;" xml:space="preserve">
<style type="text/css">
	.st0{fill:#424242;}
</style>
<path class="st0" d="M68.7,33c0.1,0.8,0,1.4-0.3,1.7c-0.2,0.2-0.5,0.3-0.8,0.3l0,0l-0.8-0.4v0c0-0.1,0-0.1,0-0.2c0-0.1,0-0.1,0-0.1
	c-2,0.3-3.2-0.5-3.7-2.2c-0.4-1.2,0.1-3.8,1.3-8l-0.6-0.6L63.7,23l0,0l2.6-4.3l0,0c1-0.1,1.5,0.2,1.7,1l0,0l0,0
	c-2.5,6.6-3.5,10.6-3,11.8c0.2,0.9,0.8,1.3,2.1,1.1c1.8-11.9,5-22.3,9.5-31.1l0-0.1l0.8,0.8l0.1,0.4l0,0
	C72.3,15.1,69.3,25.4,68.7,33z M77.2,9.2v1.2H78l3.7-4.1c4.1-3.5,6.4-5.5,6.8-6.2L88.6,0h-0.5l0,0C84.2,1.9,80.6,5,77.2,9.2
	L77.2,9.2z M117.7,16.7L117.7,16.7l0.8-0.1v-2.3l-1.7-0.5l-0.6,0.9l0.2,1.2L117.7,16.7z M43.3,6.6c1.7-0.4,2.8-0.4,3.3-0.1
	c0.1,0.1,0.2,0.2,0.2,0.4c-0.2,0.2-0.3,0.5-0.2,0.6c0.1,0.2,0.3,0.4,0.7,0.5c0.6,0.1,1,0.1,1.4-0.1c0.3-0.2,0.5-0.5,0.5-1V6.2l0,0
	c-0.8-1.7-3.3-1.9-7.7-0.8c-5.9,2.4-9.1,5.7-9.5,9.8c-0.1,1.3,0.2,2.2,0.8,2.9c0.8,0.8,2.1,1.2,4,1.2l3.9,0.2c1,0.1,1.8,0.5,2.2,1.1
	c0.5,0.8,0.6,1.9,0.2,3.5c-0.2,2.2-2.3,4.5-6.2,6.9c-8.1,4.1-20.6,7.2-36.9,9.3l0,0V41h0h1.8c10.3-1.2,18.2-2.6,23.4-4
	c6-1.7,10.6-3.6,13.9-5.5c3.2-1.9,5.1-4,5.5-6.2c0.7-2.3,0.7-4.1,0-5.3c-0.6-1-1.6-1.6-3.2-1.9c-1.1-0.3-2.9-0.5-5.3-0.4
	c-0.9,0-1.6-0.2-2-0.6c-0.4-0.5-0.5-1.2-0.3-2.2C34.3,11.4,37.5,8.6,43.3,6.6z M55,33.1L55,33.1c-1.4,0.7-2.9,1-4.5,1.1
	c-0.2,0-0.3,0-0.5,0c-2.5,0-3.9-1.6-4.4-4.9c0-3.5,3-6.2,8.9-7.9c2.7-0.4,4.5,0.7,5.4,3.3C60.3,28.3,58.6,31.1,55,33.1z M58.2,25.1
	c-1.1-2.2-3.3-2.7-6.7-1.3l-1.1,0.7l1.7,1l-1,0.5l0,0l-0.5-0.5c-2.6,0.3-3.9,1.6-3.9,3.8c0.7,2.7,2.1,3.9,4,3.7
	C56.3,31.7,58.7,29.1,58.2,25.1z M79.6,33.1c-1.4,0.7-2.9,1-4.5,1.1c-0.2,0-0.3,0-0.5,0c-2.5,0-3.9-1.6-4.4-4.9c0-3.5,3-6.2,8.9-7.9
	c2.7-0.4,4.5,0.7,5.4,3.3l0,0C85,28.3,83.4,31.1,79.6,33.1z M82.9,25.1c-1.1-2.2-3.3-2.7-6.7-1.3l-1.1,0.7l1.7,1l-1,0.5l0,0
	l-0.5-0.5c-2.6,0.3-3.9,1.6-3.9,3.8c0.7,2.7,2.1,3.9,4,3.7c2.7-0.6,4.7-1.6,5.9-2.9C82.7,28.8,83.2,27.1,82.9,25.1z M69.9,2.7
	L69.9,2.7l0-0.4l-0.8-0.8l0,0.1c-4.8,9.2-8.1,20.4-9.8,33.1l0,0l0.8,0.4l0,0c0.3,0,0.6-0.1,0.8-0.3c0.3-0.3,0.4-0.9,0.3-1.7
	C61.8,25.5,64.8,15.2,69.9,2.7z M66.3,14.6l0.2,1.2l1.3,0.9l0,0l0.8-0.2v-2.3L67,13.7L66.3,14.6L66.3,14.6z M139.8,26.3L139.8,26.3
	c-4.8-1.8-5.5-2.7-5.5-3v-0.7c1.1-1.2,2.5-1.8,4.4-1.8c0.4,0,0.7,0,0.8,0.2c0.1,0.1,0.1,0.3-0.1,0.5l-2.7,2.3h0.9
	c1.5,0,2.8-0.8,3.8-2.3l0,0c0.2-1.1,0-1.9-0.8-2.3l0,0h0c-5.6,0-8.3,1.4-8.3,4.2c0.2,1.1,1,1.9,2.1,2.3c3.9,1.3,5.8,2.4,5.8,3.4v0.7
	c-1.2,1.9-4,3.4-8.3,4.3c-3.3,0.7-6.9,1-10.7,1h-0.1l1.2,1.2h0h3c5.6-0.4,9.8-1.3,12.6-2.5c2.7-1.3,4.1-3,4-5.1
	C141.4,27.6,140.8,26.8,139.8,26.3z M114.4,19.5c-1.6,4.6-3.1,9.8-4.4,15.2l0,0.1l-0.1,0l-1.1-0.6l0,0l0.3-2.1
	c-1.7,1.7-3.4,2.5-5.1,2.5h-0.8l0,0l-0.4,0c0,0-0.1,0-0.2,0c-0.1,0-0.1,0-0.2,0c-0.6-0.1-1.1-0.2-1.5-0.3c-2.2-0.4-3.9-0.4-5.2-0.1
	l-0.6,1.8c-1.7,7.6-4.9,13.5-9.4,17.7l0,0l-1.1,0.1l0.1-0.1c4.7-6,7.7-12.4,9-19h-0.3c-3.2,0.7-4.8,1.7-4.8,2.9v0h-0.8l0,0l-0.4-1.5
	l0.7-1.5c-3.1-0.8-4.2-4-3.3-9.3c0.4-2.2,1.7-4,4-5.4c1.5-0.9,3.1-1.2,4.6-1.1l0,0c1.5,0.5,2.2,1.2,2.3,2.2l0.3-0.3h0.4l1.2,1.2v1.5
	c0,1.7-0.4,4.6-1.4,9.2l0.6-0.1c0.7,0,1.3,0,1.9,0c-0.7-1.1-1-2.7-1.1-4.5c0-0.9,0.2-1.8,0.5-2.6c0.6-2.1,2-4.3,4.1-6.5l0,0l0,0
	l1.1-0.2l0,0l0.9,0.6l0.1,0.7l0,0c-0.5,1.4-1.4,2.6-3,3.7l-1.5,1c-0.6,1.3-0.9,2.5-0.7,3.5c0.6,3.2,1.9,4.8,4,4.8c0,0,0.1,0,0.1,0
	h1.1c3.6-0.2,6-4.2,7.1-11.8c0.3-1.3,0.6-2.1,1-2.3c0.1-0.1,0.3-0.1,0.4-0.1l0,0L114.4,19.5L114.4,19.5z M100.1,23.1l0.2-0.1
	c0.3-0.3,1.2-1,1.2-1.3l-0.7,0.2L100.1,23.1z M95.6,21.6C95.3,22.5,95,23,94.6,23h0l0,0l-1.3-0.8l0.4-1.1c-0.4-0.4-0.9-0.5-1.5-0.5
	c-0.8,0-1.8,0.3-3,0.9c-1.6,0.7-2.6,3.2-3,7.4c0.1,2.6,1.2,3.9,3.4,4.2c2.8-0.2,4.5-1.1,5.4-2.8C95.7,26.2,95.9,23.4,95.6,21.6z
	 M248.7,20.5l-1.5,3.6c-0.6,1.6-1.1,3.8-1.5,6.7l0,1.7l0,1.1l0,0l-0.9,1.1l0,0c-0.2,0-0.4-0.1-0.5-0.3c-0.2-0.3-0.2-0.7-0.1-1.4
	l0-0.3c-1,0.9-2.6,1.4-4.9,1.4c-0.1,0-0.2,0-0.3,0c-1.9-0.5-2.9-1.8-3-4c-0.3,1-0.7,2.1-1.1,3.2c-0.3,0.9-1,1.1-1.9,0.8l0,0l0-0.4
	c1.7-3.6,2.3-6.8,1.9-9.5c0,0-0.1,0-0.1,0c-0.7,0-2.7,1.8-8.1,9.7l0,0h-0.4l-0.8-0.8l0,0c1.8-7.7,1.7-9.6,1.2-9.8
	c-0.5,0-2.1,2-6.7,11.2l0,0l0,0l-1.6-0.6l0.1-0.6c1.8-10.6,3.1-15.7,4.1-15.7h0l0.8,0.8l0,0.4c-1,2.4-2,6.2-3,11.4h0.3
	c2.1-5.1,4.1-7.9,6.1-8.5l0,0l0.8,0c1.3,0.3,1.6,2.4,0.8,6.4l-0.2,1.4c2.8-4.7,5.1-7,7-7c0.1,0,0.1,0,0.2,0c1,0.2,1.5,1.1,1.5,2.6
	v0.1c1.5-4.1,4.9-6.5,10.3-7.1l0,0l1,0.9l0.1,0.1c0.4-0.4,0.8-0.7,1.2-1l0,0l0.7,0.9l0,0c0.1,1.9-0.1,3.1-0.6,3.5
	c-0.2,0.2-0.5,0.2-0.9,0.1l0,0l0,0L248.7,20.5z M246.2,22.4l-0.2,0.1c-0.1,0-0.1,0.1-0.2,0.1l0,0l-0.8-0.9l0.8-1.1v-0.3
	c-3.3,0.1-5.7,1.5-7.2,4.3c-1.4,3.3-1.4,5.8,0,7.6c1.7,0.5,3.7,0.1,5.8-1.1l0.1-1C244.8,27,245.4,24.3,246.2,22.4z M219.2,24.2
	c-2.7,0.6-4,1.1-4,1.4l0,0c-1.5,3.2-2.4,6.1-2.6,8.8l0,0h-0.4c-0.2,0-0.4-0.1-0.5-0.2c-0.3-0.4-0.3-1.2,0.1-2.8l1.8-6.1h-0.3
	l-2.5,0.7l-1.3,2.3c-2.6,4.1-4.8,6.2-6.5,6.2c-0.1,0-0.2,0-0.3,0c0,0,0,0,0,0c-0.4,0-0.7-0.1-0.9-0.4c-0.4-0.5-0.6-1.3-0.6-2.6
	c0.6-2.8,1.2-4.1,1.9-4.1h0.4l0.7,0.8v0.4l0,0c-1,1-1.3,2.4-1.1,4.3c1.5-0.6,3.3-2.6,5.4-5.8l0.3-0.4l-2.1,0.5l-0.4-0.4v-0.4
	c0-0.9,1.4-1.6,4.1-2.3c5.7-11.6,8.9-17.7,9.5-17.9l0,0l0,0l0.8,0.8l0,0l-4.8,16.4c0.1,0,0.3,0,0.4,0c1.5,0,2.5,0.2,2.8,0.5
	C219.2,23.9,219.2,24,219.2,24.2L219.2,24.2L219.2,24.2z M217.5,13.4L217,14l-5,9.9l1.8-0.3C214.3,23.7,215.6,20.2,217.5,13.4z
	 M284.6,22.3c-0.2,0.2-0.5,0.2-0.9,0.1l0,0l0,0l0.1-1.9l-1.5,3.6c-0.6,1.6-1.1,3.8-1.5,6.7l0,1.7l0,1.1l0,0l-0.9,1.1l0,0
	c-0.2,0-0.4-0.1-0.5-0.3c-0.2-0.3-0.2-0.7-0.1-1.4l0-0.3c-1,0.9-2.6,1.4-4.9,1.4c-0.1,0-0.2,0-0.3,0c-2.4-0.6-3.4-2.6-3-6.1
	c0.4-2.9,1.5-5.3,3.4-6.9c1.8-1.6,4.4-2.7,7.6-3.1l0,0l1,0.9l0.1,0.1c0.4-0.4,0.8-0.7,1.2-1l0,0l0.7,0.9l0,0
	C285.3,20.7,285.1,21.9,284.6,22.3z M281.2,22.4l-0.2,0.1c-0.1,0-0.1,0.1-0.2,0.1l0,0l-0.8-0.9l0.8-1.1v-0.3
	c-3.3,0.1-5.7,1.5-7.2,4.3c-1.4,3.3-1.4,5.8,0,7.6c1.7,0.5,3.7,0.1,5.8-1.1l0.1-1C279.9,27,280.5,24.3,281.2,22.4z M277.2,5.6
	L277.2,5.6l0.9-0.1l0,0c-0.1-1-0.3-1.7-0.8-2c-0.3-0.2-0.6-0.2-1-0.1l0,0l0,0c-4.2,8.8-6.7,15.1-7.5,19.3c-1,6.4-2.8,9.7-5.2,10.1
	c-0.8,0-1.5-0.3-2-0.8c-0.8-0.8-1.1-2.4-0.9-4.6c0.4-2.7,1.7-4.5,3.8-5.3c0.7-0.2,1.2-0.1,1.6,0.1c0.5,0.3,0.7,1.1,0.7,2.1v0
	l0.7,0.3l0,0c0.6-0.5,0.8-1.4,0.7-2.7c-0.2-1-1-1.6-2.3-1.7c-2.7,0.2-4.6,1.5-5.8,4c-0.1-1.9-0.8-3.2-2-3.8l0,0
	c-2.2,0-4.4,1.6-6.4,4.8h-0.3l0.7-3.7c0-0.8-0.3-1.1-0.8-1.1h-0.4l-0.4,0.4l0,0l0,0c-0.2,3.5-1,7.3-2.3,11.6l0,1.2l0.8,0.8h0.4
	c0.1,0,0.4,0,1.9-4.9c1.7-4.7,3.7-7.1,5.9-7.1c0.5,0,0.9,0.6,1.1,1.8c0,3.2-0.8,6.5-2.3,10.1l0,0.1h1.4l0,0c0.7-1.4,1.2-2.7,1.7-3.9
	c0.2,1.5,0.7,2.6,1.5,3.4l0,0c1.9,0.8,3.9,0.6,6-0.5l0.5-0.7l-0.2,1.4l0,0l0.8,0.7l0,0l0.5-0.1l0,0c0.2-1.1,0.3-2,0.3-2.7
	c0.1-0.4,0.2-0.9,0.3-1.5c0.2-1,0.4-2.3,0.8-3.8c1.5-6.9,3.9-14.1,7.3-21.4L277.2,5.6z M121.3,34.2c-0.2,0-0.3,0-0.5,0
	c-2.5,0-3.9-1.6-4.4-4.9c0-3.5,3-6.2,8.9-7.9c2.7-0.4,4.5,0.7,5.4,3.3c0.5,3.6-1.1,6.4-4.9,8.4C124.4,33.8,122.9,34.1,121.3,34.2z
	 M121.2,33c0.1,0,0.3,0,0.5,0c5.5-1.3,7.9-3.9,7.4-7.9c-1.1-2.2-3.3-2.7-6.7-1.3l-1.1,0.7l1.7,1l-1,0.5l0,0l-0.5-0.5
	c-2.6,0.3-3.9,1.6-3.9,3.8C118.3,31.8,119.5,33,121.2,33z M185.1,18.8c0.1,1.9-0.1,3.1-0.6,3.5c-0.2,0.2-0.5,0.2-0.9,0.1l0,0l0,0
	l0.1-1.9l-1.5,3.6c-0.6,1.6-1.1,3.8-1.5,6.7l0,1.7l0,1.1l0,0l-0.9,1.1l0,0c-0.2,0-0.4-0.1-0.5-0.3c-0.2-0.3-0.2-0.7-0.1-1.4l0-0.3
	c-1,0.9-2.6,1.4-4.9,1.4c-0.1,0-0.2,0-0.3,0c-2.4-0.6-3.4-2.6-3-6.1c0.8-5.9,4.5-9.2,11-10l0,0l1,0.9l0.1,0.1c0.4-0.4,0.8-0.7,1.2-1
	l0,0l0,0L185.1,18.8L185.1,18.8z M181.2,22.4l-0.2,0.1c-0.1,0-0.1,0.1-0.2,0.1l0,0l-0.8-0.9l0.8-1.1v-0.3c-3.3,0.1-5.7,1.5-7.2,4.3
	c-1.4,3.3-1.4,5.8,0,7.6c1.7,0.5,3.7,0.1,5.8-1.1l0.1-1C179.8,27.1,180.4,24.5,181.2,22.4z M115.3,32.5c-0.3-0.2-0.5-0.5-0.5-0.9
	l0,0c-0.5-1.2,0.5-5.2,3-11.8l0,0l0,0c-0.1-0.8-0.7-1.1-1.7-1l0,0l-2.6,4.3l0,0l0.1,0.4l0,0l0.7,0.6c-1.3,4.1-1.7,6.8-1.3,8
	c0.4,1.5,1.4,2.2,3,2.2c0.3,0,0.6,0,0.9-0.1l0,0l0.5-1.7l-0.1,0C116.4,32.8,115.7,32.8,115.3,32.5z M177.1,5.6L177.1,5.6l0.9-0.1
	l0,0c-0.1-1-0.3-1.7-0.8-2c-0.3-0.2-0.6-0.2-1-0.1l0,0l0,0c-4.2,8.8-6.6,15.1-7.5,19.3c-1,6.4-2.8,9.7-5.2,10.1
	c-0.8,0-1.5-0.3-2-0.8c-0.8-0.8-1.1-2.4-0.9-4.6c0.4-2.7,1.7-4.5,3.8-5.3c0.7-0.2,1.2-0.1,1.6,0.1c0.5,0.3,0.7,1.1,0.7,2.1v0
	l0.7,0.3l0,0c0.6-0.5,0.8-1.4,0.7-2.7c-0.2-1-1-1.6-2.3-1.7c-3.7,0.3-6,2.8-6.8,7.3c-0.3,3,0.2,5,1.5,6.4l0,0c1.9,0.8,3.9,0.6,6-0.5
	l0.5-0.7l-0.2,1.4l0,0l0.8,0.7l0,0l0.4-0.1l0,0c0.2-1.1,0.3-2,0.3-2.7c0.1-0.4,0.2-1,0.3-1.6c0.2-1,0.4-2.3,0.8-3.8
	c1.4-6.9,3.7-13.9,7.2-21.5L177.1,5.6z"/>
</svg>
