<?xml version="1.0" encoding="utf-8"?>
<!-- Generator: Adobe Illustrator 21.0.0, SVG Export Plug-In . SVG Version: 6.00 Build 0)  -->
<svg version="1.1" id="Camada_1" xmlns="http://www.w3.org/2000/svg" xmlns:xlink="http://www.w3.org/1999/xlink" x="0px" y="0px"
	 viewBox="0 0 95.7 18.1" style="enable-background:new 0 0 95.7 18.1;" xml:space="preserve">
<style type="text/css">
	.st0{fill:#424242;}
</style>
<path class="st0" d="M39,5.3L39,4.9l0.2-0.3l0.6,0.2v0.8l-0.3,0.1L39,5.3z M26,0.9l0-0.2l-0.3-0.3l0,0.1C24.1,3.5,23.1,7,22.5,11
	c-0.4,0.1-0.6,0-0.6-0.3c-0.1-0.3,0-1.2,1-3.9l0,0l0,0c-0.1-0.3-0.2-0.4-0.6-0.4l0,0l-0.9,1.4l0,0l0,0.2l0.2,0.2
	c-0.4,1.4-0.6,2.3-0.4,2.7c0.1,0.6,0.5,0.8,1.2,0.8c0,0,0,0,0,0c0,0,0,0.1,0,0.1v0l0.3,0.2l0,0c0.1,0,0.2,0,0.3-0.1
	c0.1-0.1,0.1-0.3,0.1-0.6C23.3,8.5,24.3,5.1,26,0.9L26,0.9z M23.5,0.9l0-0.2l-0.3-0.3l0,0.1c-1.6,3.1-2.7,6.8-3.3,11.1l0,0l0.3,0.2
	l0,0c0.1,0,0.2,0,0.3-0.1c0.1-0.1,0.1-0.3,0.1-0.6C20.8,8.6,21.8,5.2,23.5,0.9L23.5,0.9z M25.9,3.1v0.4h0.3l1.3-1.4
	c1.4-1.2,2.1-1.8,2.3-2.1L29.8,0h-0.2l0,0C28.3,0.6,27,1.7,25.9,3.1L25.9,3.1z M18.5,11.2L18.5,11.2c-0.5,0.2-1,0.4-1.5,0.4
	c-0.1,0-0.1,0-0.2,0c-0.8,0-1.3-0.6-1.5-1.7c0-1.2,1-2.1,3-2.7c0.9-0.1,1.6,0.2,1.8,1.1C20.3,9.5,19.7,10.5,18.5,11.2z M19.5,8.5
	c-0.4-0.7-1.1-0.9-2.2-0.4L17,8.2l0.6,0.4l-0.4,0.2L17,8.6c-0.8,0.1-1.3,0.5-1.3,1.2c0.2,0.8,0.6,1.2,1.2,1.2c0,0,0.1,0,0.2,0
	C18.9,10.6,19.7,9.8,19.5,8.5z M14.6,2.3c0.6-0.1,0.9-0.1,1.1,0c0,0,0.1,0.1,0.1,0.1c-0.1,0.1-0.1,0.2-0.1,0.2
	c0,0.1,0.1,0.1,0.2,0.2c0.2,0,0.4,0,0.5-0.1c0.1-0.1,0.2-0.2,0.2-0.4V2.1l0,0c-0.3-0.6-1.1-0.7-2.6-0.3c-2,0.8-3.1,1.9-3.2,3.3
	c0,0.4,0.1,0.8,0.3,1c0.3,0.3,0.7,0.4,1.3,0.4c0,0,0,0,0.1,0l1.3,0.1c0.3,0,0.6,0.2,0.7,0.3c0.2,0.2,0.2,0.6,0.1,1.2
	c-0.1,0.7-0.8,1.5-2.1,2.3C9.7,11.8,5.5,12.8,0,13.5l0,0v0.3h0h0.6c3.5-0.4,6.1-0.9,7.8-1.4c4.1-1.2,6.2-2.5,6.5-3.9
	c0.2-0.8,0.2-1.4,0-1.8c-0.2-0.3-0.6-0.6-1.1-0.7c-0.4-0.1-1-0.2-1.8-0.1c-0.3,0-0.5-0.1-0.6-0.2c-0.1-0.2-0.2-0.4-0.1-0.7
	C11.6,3.9,12.6,2.9,14.6,2.3z M22.3,5.4l0.5,0.3l0.3-0.1V4.8l-0.6-0.2l-0.2,0.3L22.3,5.4z M95.5,7.5c-0.1,0.1-0.2,0.1-0.3,0l0,0
	l0-0.5l-0.4,1c-0.2,0.5-0.4,1.3-0.5,2.2l0,0.6l0,0.4l-0.3,0.4l0,0c-0.1,0-0.1-0.1-0.2-0.1c-0.1-0.1-0.1-0.3,0-0.5l0,0
	c-0.3,0.3-0.9,0.4-1.6,0.4c0,0-0.1,0-0.1,0c-0.8-0.2-1.2-0.9-1-2.1c0.3-2,1.5-3.1,3.7-3.4l0,0L95,6.3c0.1-0.1,0.3-0.2,0.4-0.3l0,0
	l0.3,0.3l0,0C95.7,7,95.7,7.4,95.5,7.5z M94.3,7.6L94.3,7.6C94.3,7.6,94.3,7.6,94.3,7.6L94.3,7.6l-0.4-0.3l0.3-0.4V6.9
	c-1.1,0-1.9,0.5-2.4,1.4c-0.5,1.1-0.5,1.9,0,2.5c0.6,0.1,1.2,0,1.9-0.3l0-0.3C93.9,9.1,94,8.2,94.3,7.6z M38.4,6.6
	c-0.5,1.6-1,3.3-1.5,5.1l0,0.1l-0.4-0.3l0.1-0.6c-0.6,0.5-1.1,0.8-1.7,0.8l-0.2,0l0,0l-0.2,0c0,0,0,0,0,0c0,0,0,0-0.1,0
	c-0.2,0-0.4-0.1-0.5-0.1c-0.7-0.1-1.3-0.1-1.7,0L32,12.1c-0.6,2.5-1.6,4.5-3.2,6l0,0l-0.4,0l0.1-0.1c1.6-2,2.6-4.1,3-6.3h-0.1
	c-1,0.2-1.6,0.6-1.6,0.9v0h-0.3l-0.1-0.6l0.2-0.5c-0.8-0.2-1.2-1-1.2-2.2c-0.2,0.7-0.7,1.3-1.6,1.8c-0.5,0.2-1,0.4-1.5,0.4
	c-0.1,0-0.1,0-0.2,0c-0.8,0-1.3-0.6-1.5-1.7c0-1.2,1-2.1,3-2.7c0.9-0.1,1.6,0.2,1.8,1.1l0,0c0,0.1,0,0.2,0,0.3c0,0,0-0.1,0-0.1
	c0.1-0.7,0.6-1.3,1.3-1.8c0.5-0.3,1-0.4,1.6-0.4l0,0c0.5,0.2,0.7,0.4,0.8,0.7l0.1-0.1h0.2l0.4,0.4v0.5c0,0.6-0.1,1.5-0.4,3l0.2,0
	c0.2,0,0.4,0,0.6,0c-0.2-0.4-0.3-0.9-0.4-1.5c0-0.3,0.1-0.6,0.2-0.9c0.2-0.7,0.7-1.4,1.4-2.2l0,0l0.4-0.1L35,6.4l0.1,0.3l0,0
	c-0.2,0.5-0.5,0.9-1,1.3l-0.5,0.3c-0.2,0.4-0.3,0.8-0.2,1.2c0.2,1.1,0.6,1.6,1.3,1.6c0,0,0,0,0,0h0.4c1.2-0.1,2-1.4,2.3-3.9
	c0.1-0.5,0.2-0.7,0.4-0.8c0.1,0,0.1,0,0.2,0l0,0L38.4,6.6L38.4,6.6z M33.7,7.7C33.9,7.5,34,7.4,34,7.4l-0.2,0L33.7,7.7z M27.8,8.5
	c-0.4-0.7-1.1-0.9-2.2-0.4l-0.3,0.2l0.6,0.4l-0.4,0.2l-0.2-0.2C24.5,8.7,24,9.1,24,9.9c0.2,0.8,0.6,1.2,1.2,1.2c0,0,0.1,0,0.2,0
	C27.2,10.6,28,9.8,27.8,8.5z M32.1,7.4c-0.1,0.2-0.2,0.3-0.3,0.3h0l-0.5-0.3l0.1-0.4C31.3,7,31.1,7,31,7c-0.3,0-0.6,0.1-1,0.3
	c-0.5,0.2-0.9,1-1,2.5c0,0.8,0.4,1.3,1.1,1.4c0.9-0.1,1.5-0.4,1.8-0.9C32.1,8.9,32.1,8,32.1,7.4z M73.6,8.2
	c-1.2,0.3-1.3,0.4-1.3,0.4l0,0c-0.5,1.1-0.8,2-0.9,2.9l0,0h-0.2c-0.1,0-0.1,0-0.2-0.1c-0.1-0.1-0.1-0.4,0-1l0.6-2h-0.1l-0.8,0.2
	l-0.4,0.8c-0.9,1.4-1.6,2.1-2.2,2.1c0,0-0.1,0-0.1,0c0,0,0,0,0,0c-0.1,0-0.2,0-0.3-0.1c-0.2-0.2-0.2-0.5-0.2-0.9
	c0.2-1,0.4-1.4,0.7-1.4h0.1l0.3,0.3v0.2l0,0c-0.3,0.3-0.4,0.8-0.4,1.4c0.5-0.2,1.1-0.9,1.8-1.9L70,9l-0.6,0.1L69.2,9V8.9
	c0-0.3,0.5-0.6,1.4-0.8c2.6-5.3,3.1-6,3.2-6l0,0l0.3,0.3l0,0l-1.6,5.5c0.4,0,0.9,0,1.1,0.2C73.6,8,73.6,8.1,73.6,8.2L73.6,8.2
	L73.6,8.2z M72.9,4.7L72.9,4.7L71.2,8l0.5-0.1C71.8,7.9,72.1,7.6,72.9,4.7z M93,2l0.3-0.1l0,0c0-0.4-0.1-0.6-0.3-0.7
	c-0.1-0.1-0.2-0.1-0.4,0l0,0l0,0c-1.4,2.9-2.2,5.1-2.5,6.5c-0.3,2.1-0.9,3.2-1.7,3.3c-0.3,0-0.5-0.1-0.6-0.2
	c-0.3-0.3-0.4-0.8-0.3-1.5c0.1-0.9,0.6-1.5,1.2-1.8c0.2-0.1,0.4,0,0.5,0c0.1,0.1,0.2,0.3,0.2,0.7v0l0.3,0.1l0,0
	C89.9,8.2,90,7.8,90,7.4c0-0.2-0.2-0.6-0.8-0.6c-0.9,0.1-1.5,0.5-1.9,1.2c-0.1-0.6-0.3-1-0.7-1.2l0,0c-0.8,0-1.5,0.5-2.2,1.6h0
	l0.2-1.2c0-0.1,0-0.4-0.3-0.4h-0.1L84,7l0,0c-0.1,1.2-0.3,2.5-0.8,3.9l0,0.4l0.3,0.3h0.1c0.1,0,0.2,0,0.7-1.7c0.6-1.6,1.2-2.3,2-2.3
	c0.1,0,0.3,0.2,0.3,0.6c0,1.1-0.3,2.2-0.8,3.4l0,0.1h0.5l0,0c0.2-0.4,0.4-0.8,0.5-1.2c0.1,0.4,0.2,0.8,0.5,1l0,0
	c0.7,0.3,1.3,0.2,2-0.2l0.1-0.1l0,0.4l0.3,0.3l0.2,0l0,0c0.1-0.4,0.1-0.7,0.1-0.9c0-0.1,0.1-0.3,0.1-0.5c0.1-0.3,0.2-0.8,0.3-1.3
	C90.9,6.7,91.8,4.3,93,2L93,2z M62.1,6.3c0,0.7,0,1.1-0.2,1.2c-0.1,0.1-0.2,0.1-0.3,0l0,0l0-0.5l-0.4,1c-0.2,0.5-0.4,1.3-0.5,2.2
	l0,0.9l-0.3,0.4l0,0c-0.1,0-0.1-0.1-0.2-0.1c-0.1-0.1-0.1-0.3,0-0.5l0,0c-0.3,0.3-0.9,0.4-1.6,0.4c0,0-0.1,0-0.1,0
	c-0.8-0.2-1.2-0.9-1-2.1c0.3-2,1.5-3.1,3.7-3.4l0,0l0.4,0.3c0.1-0.1,0.3-0.2,0.4-0.3l0,0L62.1,6.3L62.1,6.3z M60.7,7.6L60.7,7.6
	C60.7,7.6,60.7,7.6,60.7,7.6L60.7,7.6l-0.1,0l-0.3-0.3l0.3-0.4V6.9c-1.1,0-1.9,0.5-2.4,1.4c-0.5,1.1-0.5,1.9,0,2.5
	c0.6,0.1,1.2,0,1.9-0.3l0-0.3C60.3,9.2,60.5,8.3,60.7,7.6z M83.4,7.1l-0.4,1c-0.2,0.5-0.4,1.3-0.5,2.2l0,0.9l0,0l-0.3,0.4l0,0
	c-0.1,0-0.1-0.1-0.2-0.1c-0.1-0.1-0.1-0.3,0-0.5l0,0c-0.3,0.3-0.9,0.4-1.6,0.4c0,0-0.1,0-0.1,0c-0.6-0.1-0.9-0.5-1-1.2
	c-0.1,0.3-0.2,0.6-0.3,0.9c-0.1,0.3-0.4,0.4-0.7,0.3l0,0l0-0.2c0.6-1.2,0.8-2.2,0.6-3.1c0,0,0,0,0,0c-0.2,0-0.7,0.4-2.7,3.3l0,0
	h-0.2l-0.3-0.3l0,0c0.6-2.7,0.5-3.2,0.4-3.2c-0.1,0-0.6,0.4-2.2,3.7l0,0l-0.6-0.2l0-0.2c0.8-4.8,1.2-5.3,1.4-5.3h0l0.3,0.3l0,0.2
	c-0.3,0.8-0.7,2.1-1,3.8h0c0.7-1.7,1.4-2.7,2.1-2.9l0,0l0.3,0c0.5,0.1,0.5,0.8,0.3,2.2l0,0.3c0.9-1.5,1.7-2.2,2.3-2.2
	c0,0,0.1,0,0.1,0c0.3,0.1,0.5,0.3,0.5,0.8C79.9,7,81.1,6.2,82.8,6l0,0l0.4,0.3c0.1-0.1,0.3-0.2,0.4-0.3l0,0l0.3,0.3l0,0
	c0,0.7,0,1.1-0.2,1.2c-0.1,0.1-0.2,0.1-0.3,0l0,0L83.4,7.1z M82.5,7.6L82.5,7.6C82.5,7.6,82.5,7.6,82.5,7.6L82.5,7.6l-0.1,0
	l-0.3-0.3l0.3-0.4V6.9c-1.1,0-1.9,0.5-2.4,1.4c-0.5,1.1-0.5,1.9,0,2.5c0.6,0.1,1.2,0,1.9-0.3l0-0.3C82.1,9.1,82.3,8.2,82.5,7.6z
	 M59.4,2l0.3-0.1l0,0c0-0.4-0.1-0.6-0.3-0.7c-0.1-0.1-0.2-0.1-0.4,0l0,0l0,0c-1.4,2.9-2.2,5.1-2.5,6.5c-0.3,2.1-0.9,3.2-1.7,3.3
	c-0.3,0-0.5-0.1-0.6-0.2c-0.3-0.3-0.4-0.8-0.3-1.5c0.1-0.9,0.6-1.5,1.2-1.8c0.2-0.1,0.4,0,0.5,0c0.1,0.1,0.2,0.3,0.2,0.7v0l0.3,0.1
	l0,0c0.2-0.2,0.3-0.5,0.3-0.9c0-0.2-0.2-0.6-0.8-0.6c-1.3,0.1-2,0.9-2.3,2.5c-0.1,1,0.1,1.7,0.5,2.2l0,0c0.7,0.3,1.3,0.2,2-0.2
	l0.1-0.1l0,0.4l0.3,0.3l0,0l0.2,0l0,0c0.1-0.4,0.1-0.7,0.1-0.9c0-0.1,0.1-0.3,0.1-0.5c0.1-0.3,0.2-0.8,0.3-1.3
	C57.4,6.7,58.2,4.4,59.4,2L59.4,2z M40.7,11.5c-0.6,0.1-1-0.1-1.3-0.5l-0.2,0.5l0,0c-0.1,0-0.2,0-0.3,0c-0.6,0-0.9-0.3-1-0.8
	c-0.1-0.4,0-1.3,0.4-2.7l-0.2-0.2l0-0.2l0,0L39,6.3l0,0c0.3,0,0.5,0.1,0.6,0.4l0,0l0,0c-1,2.8-1.1,3.7-1,3.9l0,0
	c0,0.1,0.1,0.2,0.2,0.3c0.1,0.1,0.4,0.1,0.6,0c-0.2-0.3-0.3-0.6-0.3-1c0-1.2,1-2.1,3-2.7c0.9-0.1,1.6,0.2,1.8,1.1
	c0.2,1.2-0.4,2.2-1.6,2.9C41.8,11.4,41.3,11.5,40.7,11.5z M40.7,11.1c0,0,0.1,0,0.1,0c1.8-0.4,2.6-1.3,2.5-2.6
	c-0.3-0.7-1.1-0.9-2.2-0.4l-0.3,0.2l0.6,0.4L41,8.8l-0.2-0.2c-0.8,0.1-1.3,0.5-1.3,1.3C39.7,10.7,40.1,11.1,40.7,11.1z M46.9,8.8
	L46.9,8.8c-1.7-0.6-1.8-0.9-1.8-1V7.6C45.4,7.2,45.9,7,46.5,7c0.2,0,0.2,0,0.2,0c0,0,0,0.1,0,0.1l-1,0.8h0.4c0.5,0,1-0.3,1.3-0.8
	l0,0c0.1-0.4,0-0.7-0.3-0.8l0,0h0c-1.9,0-2.8,0.5-2.8,1.4c0.1,0.4,0.3,0.6,0.7,0.8C46.3,9.1,47,9.4,47,9.7V10
	c-0.4,0.6-1.3,1.1-2.8,1.4c-1.1,0.2-2.3,0.3-3.6,0.3h-0.1l0.5,0.5h0h1c3.8-0.3,5.6-1.2,5.6-2.6C47.5,9.3,47.3,9,46.9,8.8z"/>
</svg>
