<?xml version="1.0" encoding="utf-8"?>
<!-- Generator: Adobe Illustrator 21.0.0, SVG Export Plug-In . SVG Version: 6.00 Build 0)  -->
<svg version="1.1" id="Camada_1" xmlns="http://www.w3.org/2000/svg" xmlns:xlink="http://www.w3.org/1999/xlink" x="0px" y="0px"
	 viewBox="0 0 606.3 113.9" style="enable-background:new 0 0 606.3 113.9;" xml:space="preserve">
<style type="text/css">
	.st0{fill:#424242;}
</style>
<path class="st0" d="M129.9,70.2c0.3,2.8-0.5,4.2-2.3,4.2l-1.6-0.9c3.7-27.1,10.6-50.5,20.8-70.3l1.6,1.5l0.1,0.8
	C137.5,32.4,131.3,53.9,129.9,70.2z M141.4,33.5l2.7,1.9l1.6-0.3v-4.8l-3.4-1.1L141,31L141.4,33.5z M116.7,70.2
	c-2.9,1.4-6.1,2.2-9.5,2.4c-5.8,0.5-9.3-2.9-10.3-10.3c0-7.4,6.3-13,18.9-16.7c5.7-0.8,9.5,1.5,11.3,6.9C128,60,124.6,66,116.7,70.2
	z M123.8,53.2c-2.3-4.9-7.1-5.8-14.3-2.9l-2.5,1.6l3.7,2.2l-1.9,1l-1.1-1.1c-5.6,0.7-8.4,3.5-8.4,8.3c1.6,5.8,4.5,8.4,8.7,7.9
	C119.5,67.5,124.8,61.9,123.8,53.2z M164.3,5.5l-0.1-0.8l-1.6-1.5C153,22,146.3,44.1,142.5,69.4c-2.7,0.5-4.2-0.2-4.6-2.3
	c-1.1-2.6,1-11,6.4-25.2c-0.3-1.6-1.4-2.2-3.4-2l-5.5,9l0.2,0.8L137,51c-2.7,8.9-3.6,14.6-2.8,17c0.9,3.6,3.5,5.1,7.8,4.5
	c0,0.3-0.1,0.6-0.1,0.9l1.6,0.9c1.8,0,2.6-1.4,2.3-4.2C147.2,53.9,153.3,32.4,164.3,5.5z M92,13.8c4.8-1,7.4-0.8,7.6,0.8
	c-0.9,1-0.7,1.8,0.8,2.3c2.3,0.5,3.6-0.3,3.9-2.3v-1.5c-1.7-3.5-7.1-4-16.2-1.6C75.6,16.7,68.9,23.6,68,32.2
	c-0.4,5.9,3,8.8,10.2,8.7l8.2,0.5c5.1,0.5,6.8,3.8,5.3,9.9C91.2,56.1,86.8,61,78.5,66C60.9,74.8,34.7,81.3,0,85.7v1.2h3.9
	c22.3-2.6,38.8-5.5,49.7-8.6C79.1,71,92.9,62.8,94.8,53.6c2.8-8.8,0.6-13.8-6.6-15.2c-2.2-0.7-5.9-1-11.2-0.8
	c-4.2,0.2-5.9-1.9-5-6.2C72.8,24,79.5,18.1,92,13.8z M164.2,21.9h1.6l7.9-8.8c8.6-7.2,13.5-11.6,14.5-13.1h-0.8
	c-8.4,4.1-16.1,10.6-23.2,19.5V21.9z M250.2,35.4l1.6-0.3v-4.8l-3.4-1.1l-1.3,1.8l0.4,2.4L250.2,35.4z M603.2,47.4l0.3-4.6l-3.5,8.3
	c-1.4,3.5-2.4,8.2-3.1,14.2l-0.1,3.6l-0.1,2.3l-1.9,2.2c-1.2-0.2-1.6-1.3-1.2-3.4l0.1-1c-2.2,2.2-5.9,3.2-11.2,3.1
	c-5-1.2-7.1-5.5-6.3-12.8c1.7-12.5,9.5-19.5,23.3-21.1l2.1,1.8l0.4,0.3c0.8-0.9,1.8-1.6,2.7-2.2l1.4,1.8
	C606.6,45.7,605.6,48.2,603.2,47.4z M598.1,47.3l-0.7,0.2c-0.2,0.1-0.3,0.2-0.4,0.3l-1.5-1.7l1.7-2.3V43c-7.1,0.1-12.3,3.2-15.5,9.2
	c-3,7-3,12.4,0,16.3c3.7,1,7.9,0.2,12.6-2.3l0.1-1l0.1-1.1C595.2,57.1,596.4,51.5,598.1,47.3z M297.1,55.9c-7.9-3-11.8-5.2-11.8-6.5
	v-1.6c2.3-2.7,5.5-4,9.5-4c1.7-0.1,2.3,0.4,1.7,1.6l-5.6,4.8h1.6c3.1,0,5.8-1.6,7.9-4.8c0.5-2.3,0-3.9-1.6-4.8
	c-11.7,0-17.5,2.9-17.5,8.8c0.5,2.2,2,3.9,4.3,4.8c8.2,2.8,12.3,5.2,12.3,7.3v1.6c-2.5,4.1-8.4,7.2-17.8,9.3
	c-7.1,1.4-14.7,2.1-22.8,2.1l2.4,2.4h6.3c23.9-1.8,35.5-7.2,35-16.1C300.5,58.6,299.1,57,297.1,55.9z M375.7,11.1l0.8,0.7l1.7-0.3
	c-0.3-3.5-1.5-4.9-3.6-4.3c-8.7,18.2-14.1,31.9-16,41.1c-2.2,13.6-5.9,20.8-11.1,21.5c-4.7,0-6.8-3.8-6.2-11.6
	c0.9-5.8,3.6-9.6,8.1-11.4c3.3-0.9,5,0.7,5,4.9l1.3,0.6c1.2-1.1,1.7-3,1.5-5.6c-0.4-2.1-2-3.3-4.8-3.5c-7.9,0.7-12.7,5.8-14.3,15.4
	c-0.7,6.3,0.4,10.7,3.2,13.5c4.1,1.7,8.3,1.3,12.7-1.1l1.3-1.7l-0.4,3.4l1.7,1.5l0.8-0.1c0.5-2.3,0.7-4.2,0.6-5.8
	c0.5-2.4,1.2-6.2,2.3-11.4C363.3,42,368.5,26.8,375.7,11.1z M393.4,39.9c0.4,5.8-0.6,8.3-3,7.6l0.3-4.6l-3.5,8.3
	c-1.4,3.5-2.4,8.2-3.1,14.2L384,69l-0.1,2.3l-1.9,2.2c-1.2-0.2-1.6-1.3-1.2-3.4l0.1-1c-2.2,2.2-5.9,3.2-11.2,3.1
	c-5-1.2-7.1-5.5-6.3-12.8c1.7-12.5,9.5-19.5,23.3-21.1l2.1,1.8l0.4,0.3c0.8-0.9,1.8-1.6,2.7-2.2L393.4,39.9z M385.3,47.3l-0.7,0.2
	c-0.2,0.1-0.3,0.2-0.4,0.3l-1.5-1.7l1.7-2.3V43c-7.1,0.1-12.3,3.2-15.5,9.2c-3,7-3,12.4,0,16.3c3.7,1,7.9,0.2,12.6-2.3l0.1-1
	l0.1-1.1C382.4,57.1,383.7,51.5,385.3,47.3z M179.6,52.5c1,7.5-2.5,13.5-10.4,17.7c-2.9,1.4-6.1,2.2-9.5,2.4
	c-5.8,0.5-9.3-2.9-10.3-10.3c0-7.4,6.3-13,18.9-16.7C174,44.8,177.8,47.1,179.6,52.5z M176.3,53.2c-2.3-4.9-7.1-5.8-14.3-2.9
	l-2.5,1.6l3.7,2.2l-1.9,1l-1.1-1.1c-5.6,0.7-8.4,3.5-8.4,8.3c1.6,5.8,4.5,8.4,8.7,7.9C172.1,67.5,177.4,61.9,176.3,53.2z
	 M257.8,72.6c-5.8,0.5-9.3-2.9-10.3-10.3c0-7.4,6.3-13,18.9-16.7c5.7-0.8,9.5,1.5,11.3,6.9c1.1,7.6-2.4,13.5-10.3,17.8
	C264.5,71.6,261.3,72.4,257.8,72.6z M258.6,70.2c11.6-2.7,16.9-8.3,15.9-17c-2.3-4.9-7.1-5.8-14.3-2.9l-2.5,1.6l3.7,2.2l-1.9,1
	l-1.1-1.1c-5.6,0.7-8.4,3.5-8.4,8.3C251.5,68.1,254.4,70.7,258.6,70.2z M466,51.2c-5.7,1.3-8.6,2.3-8.6,3.1
	c-3.1,6.6-5,12.8-5.5,18.7h-0.8c-1.6,0.1-1.8-1.9-0.8-6.2l3.9-13.2h-0.8l-5.4,1.5l-2.8,4.9c-5.9,9.3-10.7,13.6-14.4,13
	c-2.2,0-3.2-2.1-3.1-6.2c1.2-5.7,2.5-8.6,3.9-8.6h0.8l1.5,1.6v0.8c-2.1,2.1-2.9,5.2-2.3,9.3c3.2-1.3,7.1-5.4,11.7-12.4l0.8-1.1
	l-4.7,1.1l-0.8-0.8v-0.8c0-1.8,2.9-3.4,8.6-4.7c12.2-24.8,19-37.6,20.2-38.1l1.6,1.6l-10.2,35C463.6,49.6,466,50.2,466,51.2z
	 M462.6,27.8l-1.4,1.9L450.4,51l4-0.6C455.7,50.4,458.4,42.9,462.6,27.8z M588.5,11.1l0.8,0.7l1.7-0.3c-0.3-3.5-1.5-4.9-3.6-4.3
	c-8.7,18.2-14.1,31.9-16,41.1c-2.2,13.6-5.9,20.8-11.1,21.5c-4.7,0-6.8-3.8-6.2-11.6c0.9-5.8,3.6-9.6,8.1-11.4c3.3-0.9,5,0.7,5,4.9
	l1.3,0.6c1.2-1.1,1.7-3,1.5-5.6c-0.4-2.1-2-3.3-4.8-3.5c-5.9,0.5-10,3.4-12.4,8.8c-0.1-4.2-1.5-7.1-4.3-8.5
	c-4.7,0-9.2,3.4-13.5,10.3h-0.8l1.6-7.9c0-1.6-0.5-2.3-1.6-2.3h-0.8l-0.8,0.8c-0.5,7.4-2.1,15.6-4.8,24.6v2.4l1.6,1.6h0.8
	c0.5,0,1.8-3.4,3.9-10.3c3.7-10.1,8-15.1,12.7-15.1c1.1,0,1.9,1.3,2.4,4c0,6.9-1.7,14-5,21.6h2.7c1.6-3.3,2.8-6.2,3.7-8.8
	c0.3,3.4,1.4,6,3.2,7.7c4.1,1.7,8.3,1.3,12.7-1.1l1.3-1.7l-0.4,3.4l1.7,1.5L570,74c0.5-2.3,0.7-4.2,0.6-5.8
	c0.5-2.4,1.2-6.2,2.3-11.4C576.1,42,581.3,26.8,588.5,11.1z M528.9,42.8l-3.5,8.3c-1.4,3.5-2.4,8.2-3.1,14.2l-0.1,3.6l-0.1,2.3
	l-1.9,2.2c-1.2-0.2-1.6-1.3-1.2-3.4l0.1-1c-2.2,2.2-5.9,3.2-11.2,3.1c-4.1-1-6.2-3.9-6.4-9c-0.6,2.4-1.5,4.8-2.5,7.4
	c-0.7,1.8-2,2.3-4,1.6v-0.8c3.6-7.6,5-14.4,4.1-20.3c-1.7-0.8-7.6,6.1-17.6,20.7h-0.8l-1.6-1.6c3.2-13.4,4-20.4,2.4-21
	c-1.6,0-6.4,7.9-14.3,23.8l-3.4-1.3l0.2-1.1c3.7-22.3,6.6-33.4,8.7-33.4l1.6,1.6v0.8c-2.1,5-4.3,13.1-6.5,24.4h0.8
	c4.5-10.9,8.8-16.9,12.9-18.1h1.6c2.7,0.7,3.2,5.2,1.6,13.5l-0.4,3.4c6.2-10.5,11.3-15.6,15.4-15.2c2.1,0.5,3.2,2.3,3.2,5.5
	c0,0.3,0,0.6,0,0.9c3-9.2,10.4-14.4,22.1-15.7l2.1,1.8l0.4,0.3c0.8-0.9,1.8-1.6,2.7-2.2l1.4,1.8c0.4,5.8-0.6,8.3-3,7.6L528.9,42.8z
	 M523.5,47.3l-0.7,0.2c-0.2,0.1-0.3,0.2-0.4,0.3l-1.5-1.7l1.7-2.3V43c-7.1,0.1-12.3,3.2-15.5,9.2c-3,7-3,12.4,0,16.3
	c3.7,1,7.9,0.2,12.6-2.3l0.1-1l0.1-1.1C520.6,57.1,521.8,51.5,523.5,47.3z M243.9,67.2c-1.1-2.6,1-11,6.4-25.2
	c-0.3-1.6-1.4-2.2-3.4-2l-5.5,9l0.2,0.8l1.5,1.3c-2.7,8.9-3.6,14.6-2.8,17c0.9,3.6,3.6,5.1,8.1,4.5l1-3.3
	C246.1,70.1,244.3,69.4,243.9,67.2z M243,41.4c-3.5,9.9-6.6,20.7-9.3,32.4l-2.2-1.3l0.6-4.8c-3.7,3.7-7.4,5.6-11,5.6h-1.7l-0.1,0.1
	h-0.8c-0.2-0.1-0.5-0.1-0.7-0.2c-1.1-0.1-2.2-0.3-3.1-0.7c-4.6-0.8-8.3-0.9-11.2-0.2l-1.3,3.8c-3.6,16-10.2,28.6-20,37.6l-2,0.1
	c10.1-12.9,16.5-26.4,19.2-40.6h-0.8c-6.9,1.6-10.3,3.7-10.3,6.3h-1.6l-0.8-3.2l1.6-3.2c-6.6-1.7-9-8.3-7-19.7
	c0.8-4.7,3.6-8.4,8.4-11.4c3.2-1.8,6.5-2.6,9.7-2.4c3.2,1.1,4.8,2.6,4.8,4.8l0.8-0.8h0.8l2.4,2.4v3.2c0,3.7-1,10.2-2.9,19.6l1.5-0.2
	c1.5-0.1,2.9-0.1,4.3,0c-1.4-2.3-2.3-5.6-2.5-9.7c0-1.9,0.3-3.7,1-5.5c1.3-4.3,4.1-8.9,8.6-13.7l2.3-0.5l1.9,1.3l0.3,1.5
	c-1,2.9-3.1,5.5-6.3,7.9l-3.3,2.2c-1.4,2.8-1.9,5.4-1.5,7.6c1.2,6.9,4.1,10.3,8.9,10.2h2.4c7.8-0.5,12.9-8.9,15.2-25.1
	c0.8-3.6,1.8-5.3,3-5L243,41.4z M212.6,49.1l0.8-0.2c1.8-1.5,2.7-2.5,2.5-3l-1.6,0.4L212.6,49.1z M203.1,45.4
	c-0.5,2.1-1.2,3.2-2,3.2l-2.7-1.6l0.8-2.3c-1.8-1.8-5-1.6-9.6,0.7c-3.5,1.6-5.6,6.8-6.4,15.8c0.2,5.5,2.6,8.5,7.3,9.1
	c5.9-0.4,9.7-2.4,11.5-6C203.5,55.5,203.9,49.2,203.1,45.4z"/>
</svg>
