<?xml version="1.0" encoding="utf-8"?>
<!-- Generator: Adobe Illustrator 21.0.0, SVG Export Plug-In . SVG Version: 6.00 Build 0)  -->
<svg version="1.1" id="Camada_1" xmlns="http://www.w3.org/2000/svg" xmlns:xlink="http://www.w3.org/1999/xlink" x="0px" y="0px"
	 viewBox="0 0 285.2 44.1" style="enable-background:new 0 0 285.2 44.1;" xml:space="preserve">
<style type="text/css">
	.st0{fill:#424242;}
</style>
<path class="st0" d="M285.1,23.2c-0.1-0.3-0.3-0.5-0.6-0.7c-0.3-0.1-0.6-0.1-0.9,0c-0.3,0.1-0.5,0.3-0.7,0.6
	c-0.6,1.3-1.2,2.5-1.7,3.5c-0.5,1-1.1,1.9-1.5,2.7c-0.5,0.9-1,1.5-1.3,1.9c-0.3,0.4-0.6,0.7-0.8,0.8c0-0.2,0-0.5,0-0.9
	c0-0.4,0-0.9,0.1-1.6c0.1-0.8,0.2-1.7,0.3-2.8c0.2-1.1,0.4-2.4,0.7-4c0-0.3,0-0.6-0.2-0.8c-0.2-0.3-0.4-0.4-0.7-0.5
	c-0.3,0-0.6,0-0.9,0.2c-0.3,0.2-0.4,0.4-0.5,0.7c-0.4,2-0.9,3.6-1.4,4.9c-0.5,1.3-1,2.3-1.5,3.1c-0.5,0.8-1,1.3-1.4,1.5
	c-0.4,0.3-0.8,0.4-1,0.3c-0.2,0-0.4-0.2-0.6-0.4c-0.2-0.3-0.3-0.6-0.4-1.1c-0.1-0.4-0.1-1-0.1-1.6c0-0.6,0.1-1.4,0.3-2.2
	c0.3-1.4,0.7-2.7,1.2-3.9c0.5-1.2,1.1-2.3,1.8-3.2c0.7-0.9,1.3-1.5,1.8-1.8c0.5-0.3,1-0.5,1.3-0.5c0.2,0,0.4,0.1,0.5,0.2
	c0.1,0.2,0.3,0.4,0.3,0.6c0.1,0.2,0.2,0.4,0.2,0.7c0.1,0.2,0.1,0.4,0.1,0.6c0.1,0.3,0.2,0.6,0.4,0.7c0.2,0.2,0.5,0.3,0.9,0.2
	c0.3,0,0.6-0.2,0.7-0.4s0.3-0.5,0.2-0.8c-0.1-0.9-0.3-1.6-0.6-2.1c-0.3-0.5-0.6-0.9-0.9-1.2c-0.3-0.3-0.7-0.5-1-0.6
	c-0.3-0.1-0.6-0.1-0.8-0.1c-0.8,0-1.7,0.3-2.6,0.9c-0.8,0.6-1.6,1.4-2.4,2.3c-0.8,1-1.5,2.3-2,3.6c-0.1,0.2-0.2,0.5-0.3,0.7
	c-0.1,0.1-0.3,0.2-0.3,0.4c-0.6,1.3-1.2,2.5-1.7,3.5c-0.5,1-1.1,1.9-1.5,2.7c-0.5,0.9-1,1.5-1.3,1.9c-0.3,0.4-0.6,0.7-0.8,0.8
	c-0.1-0.3-0.1-0.6-0.1-1c0-0.4,0.1-0.9,0.1-1.5c0-0.6,0.1-1.2,0.2-2c0.2-1.5,0.5-3.1,0.8-5c0.3-1.9,0.7-4,1.2-6.5
	c0.2-1.1,0.4-2.4,0.7-3.6c0.2-1.3,0.5-2.6,0.7-4c0.1-0.3,0-0.6-0.2-0.9s-0.4-0.4-0.8-0.5c-0.3,0-0.6,0-0.9,0.2
	c-0.3,0.2-0.4,0.4-0.5,0.8c-0.2,1.4-0.5,2.7-0.7,3.9c-0.2,1.3-0.5,2.5-0.7,3.6c-0.5-0.3-1-0.4-1.6-0.3c-1.6,0.1-3.2,1.2-4.8,3.4
	c-0.7,1-1.4,2.2-2,3.5c-0.1,0.2-0.2,0.5-0.3,0.7c-0.1,0.1-0.2,0.2-0.3,0.4c-0.2,0.5-0.4,1-0.7,1.4c-0.2,0.4-0.4,0.9-0.7,1.4
	c-0.3,0.5-0.6,1.1-0.9,1.6c-0.8,1.4-1.4,2.4-1.9,3.1c-0.5,0.6-0.8,1.1-1,1.3c-0.1-0.2-0.1-0.4-0.1-0.7c0-0.3,0-0.7,0.1-1.2
	c0.1-0.7,0.1-1.4,0.3-2.2c0.1-0.8,0.3-1.6,0.4-2.4c0.2-1,0.4-2.1,0.6-3.1c0.2-1,0.3-1.9,0.3-2.8c0.1-1,0-1.8-0.2-2.4
	c-0.2-0.6-0.4-1-0.7-1.3c-0.3-0.3-0.6-0.5-0.9-0.6c-0.2-0.1-0.5-0.1-0.9-0.1s-0.7,0.1-1.2,0.3c-1,0.5-2.1,1.8-3.2,3.9l-0.5,0.9
	l0.7-3.8c0.1-0.3,0-0.6-0.2-0.9c-0.2-0.3-0.4-0.4-0.7-0.5c-0.3-0.1-0.6,0-0.9,0.2c-0.3,0.2-0.4,0.4-0.5,0.7l-1.1,6.6
	c-0.1,0.1-0.2,0.2-0.3,0.4c-0.6,1.3-1.2,2.5-1.7,3.5c-0.5,1-1.1,1.9-1.5,2.7c-0.5,0.9-1,1.5-1.3,1.9c-0.3,0.4-0.6,0.7-0.8,0.8
	c0-0.2,0-0.5,0-0.9c0-0.4,0-0.9,0.1-1.6c0.1-0.8,0.2-1.7,0.3-2.8c0.2-1.1,0.4-2.4,0.7-4c0-0.3,0-0.6-0.2-0.8
	c-0.2-0.3-0.4-0.4-0.7-0.5c-0.3,0-0.6,0-0.9,0.2c-0.3,0.2-0.4,0.4-0.5,0.7c-0.4,2-0.9,3.6-1.4,4.9c-0.5,1.3-1,2.3-1.5,3.1
	c-0.5,0.8-1,1.3-1.4,1.5c-0.4,0.3-0.8,0.4-1,0.3c-0.2,0-0.4-0.2-0.6-0.4c-0.2-0.3-0.3-0.6-0.4-1.1c-0.1-0.4-0.1-1-0.1-1.6
	c0-0.6,0.1-1.4,0.3-2.2c0.3-1.4,0.7-2.7,1.2-3.9c0.5-1.2,1.1-2.3,1.8-3.2c0.7-0.9,1.3-1.5,1.8-1.8c0.5-0.3,1-0.5,1.3-0.5
	c0.2,0,0.4,0.1,0.5,0.2c0.1,0.2,0.3,0.4,0.3,0.6c0.1,0.2,0.2,0.4,0.2,0.7c0.1,0.2,0.1,0.4,0.1,0.6c0.1,0.3,0.2,0.6,0.4,0.7
	c0.2,0.2,0.5,0.3,0.9,0.2c0.3,0,0.6-0.2,0.7-0.4c0.2-0.2,0.3-0.5,0.2-0.8c-0.1-0.9-0.3-1.6-0.6-2.1c-0.3-0.5-0.6-0.9-0.9-1.2
	c-0.3-0.3-0.7-0.5-1-0.6c-0.3-0.1-0.6-0.1-0.8-0.1c-0.8,0-1.7,0.3-2.6,0.9c-0.8,0.6-1.6,1.4-2.4,2.3c-0.8,1-1.5,2.3-2,3.6
	c-0.1,0.3-0.2,0.5-0.3,0.8c-0.1,0.1-0.3,0.2-0.3,0.4c-0.2,0.5-0.4,1-0.7,1.4c-0.2,0.4-0.4,0.9-0.7,1.4c-0.3,0.5-0.6,1.1-0.9,1.6
	c-0.8,1.4-1.4,2.5-1.9,3.1c-0.5,0.6-0.8,1.1-1,1.3c-0.1-0.2-0.1-0.4-0.1-0.7c0-0.3,0-0.7,0.1-1.2c0.1-0.7,0.2-1.4,0.3-2.2
	c0.1-0.8,0.3-1.6,0.4-2.4c0.2-1,0.4-2,0.6-3c0.2-1,0.3-1.9,0.3-2.8c0.1-1,0-1.8-0.2-2.4c-0.2-0.6-0.4-1-0.7-1.3
	c-0.3-0.3-0.6-0.5-0.9-0.6c-0.2-0.1-0.5-0.1-0.9-0.1c-0.3,0-0.7,0.1-1.2,0.3c-1,0.5-2.1,1.8-3.2,3.9c-0.2,0.3-0.4,0.7-0.6,1.1
	c-0.2,0.4-0.4,0.8-0.6,1.2c0-0.4,0-0.8,0.1-1.1c0-0.4,0-0.7,0-1c0-0.5-0.1-1-0.1-1.3c0-0.4-0.1-0.7-0.2-1c-0.3-0.9-0.7-1.5-1.4-1.8
	c-0.2-0.1-0.5-0.1-0.7-0.2c-0.3,0-0.6,0-1,0.2c-0.2,0.1-0.4,0.2-0.6,0.4c-0.2,0.2-0.5,0.4-0.7,0.7c-0.3,0.3-0.6,0.8-0.9,1.3
	c-0.3,0.5-0.7,1.1-1,1.9l0.6-3.2c0.1-0.3,0-0.6-0.2-0.9c-0.2-0.3-0.4-0.4-0.7-0.5c-0.3-0.1-0.6,0-0.9,0.2c-0.3,0.2-0.4,0.4-0.5,0.7
	l-1.2,6.7l-4.4,0.7c-0.1-0.9-0.2-1.9-0.2-2.8c-0.1-1-0.1-2-0.1-2.9c0.7-1.4,1.4-2.9,2-4.3c0.6-1.4,1.1-2.8,1.5-4.2
	c0.2-0.5,0.4-1.1,0.5-1.8c0.2-0.6,0.3-1.3,0.4-1.9c0.1-0.6,0.2-1.2,0.3-1.8c0-0.6,0-1.1,0-1.6c-0.1-0.6-0.3-1.1-0.6-1.5
	c-0.4-0.5-0.9-0.7-1.6-0.7c-0.2,0-0.5,0.1-0.8,0.2c-0.3,0.1-0.6,0.4-1,0.8c-0.4,0.4-0.7,1-1,1.8c-0.3,0.8-0.6,1.7-0.9,2.8
	c-0.3,1.1-0.5,2.2-0.7,3.5c-0.2,1.3-0.3,2.6-0.4,4c-0.1,1.4-0.1,2.8-0.1,4.2c-0.5,1-1,2-1.6,2.9c-0.6,1-1.1,1.9-1.7,2.7
	c-0.2,0.4-0.5,0.7-0.7,1c-0.2,0.3-0.5,0.6-0.7,0.9l-5,0.8c-0.3,0.1-0.6,0.2-0.8,0.5c-0.2,0.3-0.2,0.6-0.2,0.9c0,0.3,0.2,0.5,0.4,0.7
	c0.2,0.2,0.4,0.3,0.7,0.3h0.2l2.4-0.4c-2.1,2.2-4,3.5-5.9,4.1c-1.4,0.4-2.7,0.5-3.8,0.3c-1.1-0.2-2-0.7-2.6-1.5
	c-0.7-0.9-1-2-1.1-3.2c0-1.3,0.3-2.4,1-3.5c0.8-1.3,2-2.3,3.5-2.8c1.5-0.5,3.2-0.6,5.1-0.2c0.3,0.1,0.6,0,0.9-0.2
	c0.3-0.2,0.4-0.4,0.5-0.7c0-0.3,0-0.6-0.2-0.9c-0.2-0.3-0.4-0.4-0.7-0.5c-2.6-0.5-4.8-0.3-6.8,0.5c-1.8,0.7-3.2,1.9-4.2,3.6
	c-0.5,0.8-0.8,1.6-1,2.4c-0.2,0.8-0.3,1.7-0.3,2.5c0,0.8,0.1,1.6,0.4,2.4c0.3,0.8,0.6,1.5,1.1,2.1c0.9,1.2,2.1,2,3.6,2.3
	c1.6,0.4,3.4,0.3,5.3-0.3c2.5-0.8,5.1-2.6,7.7-5.6c0.4-0.4,0.7-0.8,1.1-1.3l4.1-0.7c0.3,2.1,0.8,4,1.3,5.9c0.6,1.9,1.3,3.5,2.1,5
	c0.8,1.5,1.8,2.7,2.8,3.7c1.9,1.9,4.1,2.9,6.8,3.3c0.2,0,0.5,0.1,0.7,0.1c0.2,0,0.5,0,0.7,0c2.4,0,5-0.6,7.8-1.8
	c0.3-0.1,0.5-0.3,0.6-0.7c0.1-0.3,0.1-0.6,0-0.9c-0.1-0.3-0.3-0.5-0.6-0.6c-0.3-0.1-0.6-0.1-0.9,0c-7.5,3.3-12.9,1.7-16.3-4.9
	c-1.3-2.5-2.2-5.7-2.8-9.4l3.7-0.6l-1.4,7.9c-0.1,0.3,0,0.6,0.2,0.8c0.2,0.3,0.4,0.4,0.7,0.5c0.3,0.1,0.6,0,0.9-0.1
	c0.3-0.2,0.4-0.4,0.5-0.7c0.3-0.9,0.5-1.8,0.7-2.5c0.2-0.8,0.5-1.6,0.8-2.6c0.3-1,0.6-1.9,1-2.9c0.6-1.6,1.1-2.8,1.5-3.8
	c0.4-1,0.8-1.8,1.1-2.4c0.3-0.6,0.6-1,0.8-1.3c0.2-0.3,0.4-0.4,0.5-0.5c0.1,0.1,0.1,0.4,0.2,0.7c0.1,0.3,0.1,0.8,0.1,1.4
	c0,0.6,0,1.4-0.1,2.4c-0.1,1-0.2,2.2-0.4,3.6c-0.1,1-0.3,1.9-0.4,2.8c-0.1,0.9-0.3,1.7-0.4,2.4c-0.2,0.8-0.3,1.6-0.5,2.3
	c-0.1,0.3,0,0.6,0.1,0.9c0.2,0.3,0.4,0.4,0.7,0.5c0,0,0.1,0,0.3,0c0.6,0,0.9-0.3,1.1-0.8c0.3-0.9,0.5-1.7,0.7-2.4
	c0.2-0.7,0.5-1.5,0.8-2.4c0.3-0.9,0.6-1.8,1-2.8c0.4-1.1,0.8-2.2,1.2-3.1s0.8-1.7,1.2-2.4c0.6-1.1,1-1.8,1.4-2.2
	c0.4-0.4,0.6-0.6,0.8-0.7c0,0,0,0,0.1,0c0,0,0,0,0.1,0c0.1,0.1,0.1,0.2,0.2,0.6c0.1,0.3,0.1,0.9,0,1.8c-0.1,0.7-0.2,1.5-0.3,2.4
	c-0.2,0.9-0.3,1.7-0.5,2.6c-0.4,2.3-0.7,4.1-0.8,5.5c-0.1,1.4,0.1,2.5,0.6,3.2c0.4,0.5,0.8,0.7,1.5,0.8c0.8,0.1,1.7-0.5,2.7-1.9
	c0.5-0.7,1-1.5,1.6-2.5c0,0.5,0.1,1,0.3,1.5c0.2,0.7,0.5,1.4,0.9,1.8c0.5,0.5,1,0.9,1.7,1c0.2,0.1,0.4,0.1,0.6,0.1
	c0.5,0,1.1-0.2,1.8-0.5c0.7-0.3,1.5-1.1,2.2-2.2c0.1-0.1,0.1-0.1,0.1-0.1c0.1,0.6,0.2,1.1,0.3,1.6c0.2,0.5,0.5,0.8,0.9,1
	c0.5,0.3,1,0.3,1.6,0.1c0.5-0.2,1.1-0.6,1.7-1.2c0.6-0.6,1.2-1.5,2-2.7c0.1-0.1,0.2-0.3,0.3-0.4l-0.5,2.8c0,0.1,0,0.1,0,0.2
	c0,0,0,0,0,0c-0.1,0.3,0,0.6,0.1,0.9c0.2,0.3,0.4,0.5,0.7,0.6h0.2c0,0,0.1,0,0.1,0h0.2c0.1,0,0.1,0,0.1,0c0,0,0.1,0,0.1,0
	c0.2-0.1,0.4-0.2,0.5-0.3c0,0,0,0,0,0c0,0,0,0,0,0c0.2-0.2,0.3-0.4,0.3-0.6v-0.2c0.1-0.2,0.2-0.6,0.3-1.1s0.3-1.1,0.5-1.7
	c0.2-0.7,0.4-1.4,0.7-2.2s0.6-1.6,0.9-2.4c0.4-1.1,0.8-2.1,1.2-3.1s0.8-1.7,1.1-2.4c0.6-1.1,1.1-1.8,1.4-2.2
	c0.4-0.4,0.6-0.6,0.8-0.7c0.1-0.1,0.1-0.1,0.2-0.1c0,0.1,0.1,0.2,0.2,0.6c0.1,0.3,0.1,0.9,0,1.8c-0.1,0.7-0.2,1.5-0.3,2.4
	c-0.2,0.9-0.3,1.7-0.5,2.6c-0.4,2.2-0.7,4.1-0.8,5.5c-0.1,1.4,0.1,2.5,0.6,3.2c0.3,0.5,0.8,0.7,1.5,0.8c0.4,0,0.9-0.1,1.3-0.4
	c0.4-0.3,0.9-0.8,1.4-1.5c0.5-0.7,1-1.5,1.6-2.5c0,0.5,0.1,1.1,0.3,1.5c0.2,0.7,0.5,1.4,1,1.8c0.5,0.5,1,0.9,1.7,1
	c0.2,0.1,0.4,0.1,0.6,0.1c0.5,0,1.1-0.2,1.8-0.5c0.7-0.3,1.4-1.1,2.2-2.2l0.1-0.1c0,0,0,0,0,0c0,0,0,0,0,0c0,0.4,0.1,0.9,0.2,1.4
	c0.1,0.5,0.4,0.9,0.9,1.1c0.3,0.2,0.6,0.2,0.9,0.2c0.2,0,0.5,0,0.7-0.1c0.5-0.2,1.1-0.6,1.7-1.2c0.6-0.6,1.2-1.5,2-2.7
	c0.1-0.1,0.1-0.2,0.2-0.3c0.1,0.5,0.1,1,0.3,1.5c0.2,0.7,0.5,1.4,0.9,1.8c0.5,0.5,1,0.9,1.7,1c0.2,0.1,0.4,0.1,0.6,0.1
	c0.5,0,1.1-0.2,1.8-0.5c0.7-0.3,1.5-1.1,2.2-2.2c0.1-0.1,0.1-0.1,0.1-0.1c0.1,0.6,0.2,1.1,0.3,1.6c0.2,0.5,0.5,0.8,0.9,1
	c0.5,0.3,1,0.3,1.6,0.1c0.5-0.2,1.1-0.6,1.7-1.2c0.6-0.6,1.2-1.5,2-2.7c1-1.6,2.1-3.7,3.3-6.4C285.2,23.8,285.2,23.5,285.1,23.2z
	 M202,6c0.3-1,0.5-1.8,0.7-2.4c0.2-0.5,0.4-0.9,0.6-1.1c0,0.2,0,0.4,0,0.7s0,0.7-0.1,1.2c-0.2,1.4-0.6,3-1.3,4.9
	c-0.1,0.4-0.3,0.8-0.4,1.2c-0.2,0.4-0.3,0.8-0.5,1.2C201.4,9.6,201.7,7.7,202,6z M197.1,24.3c0.3-0.4,0.6-0.8,0.8-1.3
	s0.5-0.9,0.8-1.3c0,0.4,0.1,0.8,0.1,1.1c0,0.4,0.1,0.8,0.1,1.1L197.1,24.3z M262.3,22.5c-0.4,1.9-0.9,3.5-1.4,4.8s-1,2.3-1.5,3
	c-0.5,0.7-1,1.2-1.4,1.5c-0.4,0.3-0.8,0.4-1,0.3c-0.2,0-0.4-0.2-0.6-0.4c-0.2-0.3-0.3-0.6-0.4-1.1c-0.1-0.4-0.2-1-0.2-1.6
	c0-0.6,0.1-1.4,0.3-2.2c0.3-1.3,0.7-2.6,1.1-3.8c0.5-1.2,1.1-2.2,1.7-3.1c0.6-0.9,1.2-1.5,1.8-1.8c0.5-0.4,1-0.5,1.3-0.6
	c0.1,0,0.2,0,0.4,0.1c0.2,0.1,0.4,0.3,0.6,0.7L262.3,22.5z M168.6,22.5c-0.3-0.1-0.6-0.1-0.9,0c-0.3,0.1-0.5,0.3-0.7,0.6
	c-0.6,1.3-1.2,2.5-1.7,3.5c-0.5,1-1.1,1.9-1.5,2.7c-0.5,0.9-1,1.5-1.3,1.9c-0.3,0.4-0.6,0.7-0.8,0.8c0-0.2,0-0.5,0-0.9
	c0-0.4,0-0.9,0.1-1.6c0.1-0.8,0.2-1.7,0.3-2.8c0.2-1.1,0.4-2.4,0.7-4c0-0.3,0-0.6-0.2-0.8c-0.2-0.3-0.4-0.4-0.7-0.5
	c-0.3,0-0.6,0-0.9,0.2s-0.4,0.4-0.5,0.7c-0.4,2-0.9,3.6-1.4,4.9c-0.5,1.3-1,2.3-1.5,3.1c-0.5,0.8-1,1.3-1.4,1.5
	c-0.4,0.3-0.8,0.4-1,0.3c-0.2,0-0.4-0.2-0.6-0.4c-0.2-0.3-0.3-0.6-0.4-1.1c-0.1-0.4-0.1-1-0.1-1.6c0-0.6,0.1-1.4,0.3-2.2
	c0.3-1.4,0.7-2.7,1.2-3.9c0.5-1.2,1.1-2.3,1.8-3.2c0.7-0.9,1.3-1.5,1.8-1.8c0.5-0.3,1-0.5,1.3-0.5c0.2,0,0.4,0.1,0.5,0.2
	c0.1,0.2,0.3,0.4,0.3,0.6c0.1,0.2,0.2,0.4,0.2,0.7c0.1,0.2,0.1,0.4,0.1,0.6c0.1,0.3,0.2,0.6,0.4,0.7c0.2,0.2,0.5,0.3,0.9,0.2
	c0.3,0,0.6-0.2,0.7-0.4c0.2-0.2,0.3-0.5,0.2-0.8c-0.1-0.9-0.3-1.6-0.6-2.1c-0.3-0.5-0.6-0.9-0.9-1.2c-0.3-0.3-0.7-0.5-1-0.6
	c-0.3-0.1-0.6-0.1-0.8-0.1c-0.8,0-1.7,0.3-2.6,0.9c-0.8,0.6-1.6,1.4-2.4,2.3c-0.8,1-1.5,2.3-2,3.6c-0.1,0.2-0.2,0.5-0.3,0.7
	c-0.1,0.1-0.3,0.2-0.3,0.4c-0.6,1.3-1.2,2.5-1.7,3.5c-0.5,1-1.1,1.9-1.5,2.7c-0.5,0.9-1,1.5-1.3,1.9c-0.3,0.4-0.6,0.7-0.8,0.8
	c-0.1-0.3-0.1-0.6-0.1-1c0-0.4,0.1-0.9,0.1-1.5c0-0.6,0.1-1.2,0.2-2c0.2-1.5,0.5-3.1,0.8-5c0.3-1.9,0.7-4,1.2-6.5
	c0.2-1.1,0.4-2.4,0.7-3.6c0.2-1.3,0.5-2.6,0.7-4c0.1-0.3,0-0.6-0.2-0.9c-0.2-0.3-0.4-0.4-0.8-0.5c-0.3,0-0.6,0-0.9,0.2
	C149.2,7.4,149,7.7,149,8c-0.2,1.4-0.5,2.7-0.7,3.9c-0.2,1.3-0.5,2.5-0.7,3.6c-0.5-0.3-1-0.4-1.6-0.3c-1.6,0.1-3.2,1.2-4.8,3.4
	c-0.7,1-1.4,2.2-2,3.5c-0.6,1.3-1,2.7-1.3,4.2c-0.4,2.1-0.4,3.8,0,5.2c0.2,0.7,0.5,1.4,1,1.8c0.5,0.5,1,0.9,1.7,1
	c0.2,0.1,0.4,0.1,0.6,0.1c0.5,0,1.1-0.2,1.8-0.5c0.7-0.3,1.4-1.1,2.2-2.2l0.1-0.1c0,0,0,0,0,0c0,0,0,0,0,0c0,0.4,0.1,0.9,0.2,1.4
	c0.1,0.5,0.4,0.9,0.9,1.1c0.3,0.2,0.6,0.2,0.9,0.2c0.2,0,0.5,0,0.7-0.1c0.5-0.2,1.1-0.6,1.7-1.2c0.6-0.6,1.2-1.5,2-2.7
	c0.1-0.1,0.1-0.2,0.2-0.3c0.1,0.5,0.1,1,0.3,1.5c0.2,0.7,0.5,1.4,0.9,1.8c0.5,0.5,1,0.9,1.7,1c0.2,0.1,0.4,0.1,0.6,0.1
	c0.5,0,1.1-0.2,1.8-0.5c0.7-0.3,1.5-1.1,2.2-2.2c0.1-0.1,0.1-0.1,0.1-0.1c0.1,0.6,0.2,1.1,0.3,1.6c0.2,0.5,0.5,0.8,0.9,1
	c0.5,0.3,1,0.3,1.6,0.1c0.5-0.2,1.1-0.6,1.7-1.2c0.6-0.6,1.2-1.5,2-2.7c1-1.6,2.1-3.7,3.3-6.4c0.1-0.3,0.1-0.6,0-0.9
	C169.1,22.9,168.9,22.7,168.6,22.5z M146.4,22.5c-0.4,1.9-0.9,3.5-1.4,4.8s-1,2.3-1.5,3c-0.5,0.7-1,1.2-1.4,1.5
	c-0.4,0.3-0.8,0.4-1,0.3c-0.2,0-0.4-0.2-0.6-0.4c-0.2-0.3-0.3-0.6-0.4-1.1c-0.1-0.4-0.2-1-0.2-1.6c0-0.6,0.1-1.4,0.3-2.2
	c0.3-1.3,0.7-2.6,1.1-3.8c0.5-1.2,1.1-2.2,1.7-3.1c0.6-0.9,1.2-1.5,1.8-1.8c0.5-0.4,1-0.5,1.3-0.6c0.1,0,0.2,0,0.4,0.1
	c0.2,0.1,0.4,0.3,0.6,0.7L146.4,22.5z M101.2,13.5c-0.1-0.3-0.2-0.6-0.1-0.8c0.1-0.4,0.2-0.8,0.3-1.2c0.1-0.4,0.1-0.7,0.2-1
	c-0.2-0.2-0.3-0.5-0.3-0.8c0-0.3,0.1-0.6,0.3-0.8c0.2-0.2,0.5-0.3,0.8-0.3c0.4,0,0.8,0.2,1.1,0.6c0.2,0.3,0.3,0.6,0.3,1.1
	c0,0.4-0.1,1-0.2,1.7c-0.1,0.4-0.2,0.7-0.2,1c-0.1,0.3-0.1,0.5-0.1,0.5c-0.1,0.3-0.2,0.5-0.4,0.6c-0.2,0.1-0.4,0.2-0.7,0.2
	c-0.1,0-0.2,0-0.3-0.1C101.5,13.9,101.3,13.7,101.2,13.5z M66.6,13.1c0.3,0,0.6-0.1,0.9-0.4l2.9-2.9c0.3-0.3,0.4-0.6,0.3-0.9
	c0-0.3-0.2-0.6-0.4-0.7c-0.2-0.2-0.5-0.3-0.8-0.3c-0.3,0-0.6,0.1-0.9,0.4l-2.9,2.9c-0.3,0.3-0.4,0.6-0.3,0.9
	c0.1,0.3,0.2,0.6,0.4,0.7C66.1,13,66.3,13.1,66.6,13.1z M48.4,14c0.2,0.1,0.3,0.1,0.3,0.1c0.3,0,0.5-0.1,0.7-0.2
	c0.2-0.1,0.3-0.3,0.4-0.6c0,0,0-0.2,0.1-0.5c0.1-0.3,0.2-0.6,0.2-1c0.2-0.7,0.3-1.2,0.2-1.7c0-0.4-0.1-0.8-0.3-1.1
	c-0.3-0.4-0.7-0.6-1.1-0.6c-0.3,0-0.6,0.1-0.8,0.3c-0.2,0.2-0.3,0.5-0.3,0.8c0,0.3,0.1,0.6,0.3,0.8c0,0.3-0.1,0.6-0.2,1
	c-0.1,0.4-0.2,0.8-0.3,1.2c-0.1,0.3-0.1,0.6,0.1,0.8C47.9,13.7,48.1,13.9,48.4,14z M128.4,21.3c-0.4-0.6-0.7-1.1-1.1-1.7
	c-0.4-0.5-0.8-1.1-1.1-1.6c-0.3-0.5-0.5-1.1-0.7-1.8c-0.1-0.3-0.2-0.6-0.4-0.8c-0.2-0.2-0.5-0.2-0.9-0.2c-0.3,0.1-0.6,0.2-0.7,0.5
	c-0.2,0.3-0.3,0.5-0.2,0.8c0.2,0.9,0.4,1.7,0.9,2.4c0.4,0.7,0.9,1.4,1.3,2c0.4,0.5,0.7,0.9,1,1.4c0.3,0.5,0.5,1,0.6,1.5
	c0.2,0.6,0.2,1.3,0.2,1.9c-0.1,0.6-0.2,1.3-0.4,1.9c-0.2,0.6-0.5,1.2-0.9,1.7c-0.4,0.5-0.7,1-1.1,1.4c-0.5,0.5-1.1,0.9-1.7,1.2
	c-0.7,0.3-1.2,0.4-1.7,0.2c-0.2,0-0.4-0.1-0.6-0.3c-0.2-0.1-0.4-0.4-0.6-0.8c-0.2-0.4-0.2-0.9-0.2-1.5c0-0.6,0.1-1.2,0.2-1.7
	c0.1-0.6,0.3-1.2,0.6-1.7c0.2-0.6,0.5-1,0.8-1.5c0.2-0.3,0.3-0.6,0.2-0.9c0-0.2-0.2-0.4-0.3-0.6c0.1-0.1,0.1-0.1,0.2-0.2
	c0.2-0.2,0.3-0.5,0.3-0.8c0-0.3-0.1-0.6-0.3-0.8c-0.2-0.2-0.5-0.3-0.8-0.3c-0.3,0-0.6,0.1-0.8,0.3c-0.3,0.3-0.6,0.4-1.1,0.5
	c-0.5,0.1-1,0.1-1.5,0.1c-0.5,0-1-0.1-1.5-0.2c-0.5-0.1-0.9-0.2-1.2-0.3c-0.3-0.1-0.7,0-1,0.2c-0.3,0.2-0.4,0.5-0.5,0.9
	c-0.1,1.5-0.2,2.8-0.5,3.9c-0.3,1.1-0.6,2.1-0.9,2.8c-0.4,0.8-0.7,1.4-1.2,1.9c-0.4,0.5-0.8,0.8-1.2,1c-0.2,0.1-0.4,0.2-0.7,0.2
	c-0.3,0-0.5-0.1-0.8-0.3c-0.3-0.3-0.6-0.8-0.8-1.5c-0.2-0.7-0.2-1.7,0.1-3c0.3-1.6,0.8-3,1.3-4.2c0.6-1.2,1.1-2.2,1.7-3.1
	c0.6-0.8,1.2-1.5,1.7-1.9c0.6-0.4,1-0.6,1.4-0.6h0c0.2,0,0.3,0.1,0.5,0.2c0.1,0.2,0.2,0.3,0.3,0.5c0.1,0.2,0.1,0.4,0.2,0.6
	c0,0.2,0.1,0.4,0.1,0.5c0.1,0.3,0.2,0.6,0.5,0.8c0.3,0.2,0.5,0.3,0.8,0.2c0.3-0.1,0.6-0.2,0.8-0.4c0.2-0.2,0.3-0.5,0.2-0.9
	c-0.2-1.2-0.5-2.1-1-2.7c-0.6-0.7-1.3-1.1-2.2-1.2c-0.8,0-1.7,0.3-2.7,1c-0.9,0.6-1.7,1.4-2.4,2.4c-0.8,1.1-1.5,2.3-2.1,3.7
	c0,0.1-0.1,0.1-0.1,0.2c-0.2,0.1-0.3,0.2-0.4,0.4c-0.6,1.3-1.2,2.5-1.7,3.5c-0.5,1-1.1,1.9-1.5,2.7c-0.5,0.9-1,1.5-1.3,1.9
	c-0.3,0.4-0.6,0.7-0.8,0.8c0-0.1,0-0.2-0.1-0.4c0-0.2,0-0.3,0-0.6c0-0.4,0.1-0.9,0.1-1.4c0-0.5,0.1-1.1,0.2-1.8
	c0.2-1.4,0.4-3,0.7-4.8c0.3-1.8,0.7-3.9,1.1-6.2l0-0.3c0.1-0.3,0-0.6-0.2-0.9c-0.2-0.3-0.4-0.4-0.7-0.5c-0.3,0-0.6,0-0.9,0.2
	c-0.3,0.2-0.4,0.4-0.5,0.7l0,0.3c-0.4,2.4-0.8,4.5-1.1,6.3c-0.1,0.1-0.2,0.2-0.3,0.4c-1.2,2.6-2.3,4.7-3.2,6.2
	c-0.5,0.9-1,1.5-1.3,1.9c-0.3,0.4-0.6,0.7-0.8,0.8c0-0.1,0-0.2-0.1-0.4c0-0.2,0-0.3,0-0.6c0-0.4,0-0.9,0.1-1.5
	c0.1-0.5,0.1-1.2,0.2-1.9c0.2-1.5,0.5-3.1,0.8-5c0.3-1.9,0.7-4,1.1-6.1c0.1-0.3,0-0.6-0.2-0.8c-0.2-0.3-0.4-0.4-0.7-0.5
	c-0.3-0.1-0.6,0-0.8,0.1c-0.3,0.2-0.4,0.4-0.5,0.7c-0.5,2.1-1.1,4.1-1.9,6c-0.8,2-1.6,3.8-2.5,5.4c-0.7,1.3-1.3,2.3-1.8,3
	c-0.5,0.7-0.9,1.1-1.2,1.4c-0.1-0.2-0.1-0.4-0.1-0.6c0-0.4,0-0.8,0-1.3c0-0.5,0.1-1.1,0.2-1.8c0.2-1.3,0.4-2.9,0.7-4.8
	c0.3-1.9,0.8-4.2,1.3-6.8c0.1-0.3,0-0.6-0.2-0.9c-0.2-0.3-0.4-0.4-0.7-0.5c-0.3-0.1-0.6,0-0.9,0.2c-0.3,0.2-0.4,0.4-0.5,0.7
	c-0.5,2.8-1,5.2-1.3,7.2s-0.6,3.7-0.8,5c-0.2,1.5-0.2,2.6-0.1,3.4c0.1,1.1,0.5,1.9,1.1,2.3c0.1,0.1,0.3,0.2,0.6,0.3
	c0.3,0.1,0.6,0.1,1-0.1c0.4-0.2,0.9-0.5,1.3-0.9c0.4-0.4,0.9-0.9,1.3-1.5c0.4-0.6,0.8-1.1,1.2-1.7c0.4-0.6,0.7-1.1,0.9-1.6l0.3-0.6
	v0.2c-0.2,1.6-0.3,2.8-0.2,3.6c0,0.4,0.1,0.9,0.2,1.3c0.1,0.5,0.5,0.9,0.9,1.1c0.3,0.2,0.6,0.2,0.9,0.2c0.2,0,0.4,0,0.6-0.1
	c0.6-0.2,1.1-0.6,1.7-1.2c0.6-0.6,1.2-1.5,1.9-2.7c0.2-0.3,0.4-0.6,0.5-0.9c0,0.3,0,0.5-0.1,0.7c0,0.6,0,1.1,0,1.5
	c0,0.4,0.1,0.9,0.2,1.3c0.1,0.5,0.4,0.9,0.9,1.1c0.3,0.2,0.6,0.2,0.9,0.2c0.2,0,0.5,0,0.7-0.1c0.6-0.2,1.1-0.6,1.7-1.2
	c0.6-0.6,1.2-1.5,1.9-2.7c0-0.1,0.1-0.1,0.1-0.2c0,0.2,0.1,0.5,0.1,0.7c0.3,1.2,0.8,2.1,1.6,2.7c0.6,0.5,1.3,0.8,2.2,0.8
	c0.6,0,1.2-0.1,1.7-0.4c1.4-0.6,2.6-1.9,3.5-3.8c0.8-1.7,1.4-3.8,1.6-6.3l1.4,0.2c0.9,0.1,1.6,0,2.3-0.1c-0.2,0.3-0.3,0.6-0.5,1
	c-0.3,0.7-0.6,1.5-0.7,2.3c-0.2,0.8-0.2,1.6-0.2,2.4c0,0.8,0.1,1.5,0.4,2.1c0.3,0.9,0.8,1.5,1.3,1.8c0.5,0.3,1,0.6,1.5,0.7
	c0.3,0.1,0.5,0.1,0.9,0.1c0.8,0,1.7-0.2,2.5-0.6c0.8-0.4,1.5-0.9,2.1-1.4c0.6-0.6,1.1-1.2,1.5-1.9c0.4-0.7,0.8-1.4,1.1-2.2
	c0.6-1.8,0.7-3.5,0.2-5.1C129,22.5,128.7,21.9,128.4,21.3z M83.9,16.5l-4.7,26.5c-0.1,0.6-0.5,1-1.1,1c-0.1,0-0.1,0-0.2,0
	c-0.3-0.1-0.5-0.2-0.7-0.5C77,43.3,77,43,77,42.7l1.8-10.1c-0.7,0.8-1.3,1.3-1.9,1.5c-0.6,0.2-1.1,0.4-1.5,0.4c-0.1,0-0.2,0-0.3,0
	c-0.1,0-0.2,0-0.3-0.1c-0.7-0.1-1.2-0.5-1.7-1c-0.4-0.5-0.7-1.1-0.9-1.8c-0.4-1.5-0.4-3.2,0-5.2c0.2-0.8,0.4-1.5,0.6-2.2
	c-0.7,0.1-1.5,0.2-2.5,0.1l-1.4-0.2c-0.3,2.5-0.8,4.6-1.6,6.3c-0.9,1.9-2.1,3.2-3.5,3.8c-0.5,0.3-1.1,0.4-1.7,0.4
	c-0.8,0-1.6-0.3-2.2-0.8c-0.8-0.6-1.3-1.5-1.6-2.7c0-0.2-0.1-0.4-0.1-0.7c0,0-0.1,0.1-0.1,0.2c-0.7,1.2-1.4,2.1-2,2.7
	c-0.6,0.6-1.1,1-1.7,1.2c-0.2,0.1-0.5,0.1-0.7,0.1c-0.4,0-0.7-0.1-0.9-0.2c-0.5-0.3-0.8-0.7-0.9-1.1c-0.1-0.5-0.2-0.9-0.2-1.4
	c0-0.5,0-1.3,0.1-2.1c-0.2,0.3-0.3,0.6-0.5,0.8c-0.7,1.2-1.4,2.1-1.9,2.7c-0.6,0.6-1.1,1-1.7,1.2c-0.2,0.1-0.5,0.1-0.7,0.1
	c-0.3,0-0.6-0.1-0.9-0.2c-0.5-0.3-0.8-0.6-0.9-1.1c-0.1-0.5-0.2-0.9-0.2-1.3c-0.1-0.4-0.1-0.9,0-1.5c0-0.2,0-0.4,0.1-0.6
	c-0.2,0.3-0.3,0.5-0.5,0.8c-0.7,1.2-1.4,2.1-2,2.7c-0.6,0.6-1.1,1-1.7,1.2c-0.2,0.1-0.5,0.1-0.7,0.1c-0.4,0-0.7-0.1-0.9-0.2
	c-0.5-0.3-0.8-0.7-0.9-1.1c-0.1-0.5-0.2-0.9-0.2-1.4c0-0.9,0.1-2.1,0.2-3.7c0.1-1.2,0.3-2.5,0.6-3.9c-0.8,0.2-1.6,0.2-2.6,0.1
	l-1.4-0.2c-0.3,2.5-0.8,4.6-1.6,6.3c-0.9,1.9-2.1,3.2-3.5,3.8c-0.5,0.3-1.1,0.4-1.7,0.4c-0.8,0-1.6-0.3-2.2-0.8
	c-0.8-0.6-1.3-1.5-1.6-2.7c-0.1-0.6-0.2-1.2-0.2-1.9c0-0.7,0.1-1.4,0.2-2.2c0.3-1.6,0.8-3,1.4-4.4c0.6-1.4,1.3-2.7,2.1-3.7
	c0.7-1,1.5-1.8,2.4-2.4c0.9-0.7,1.8-1,2.7-1c0.9,0.1,1.7,0.4,2.2,1.2c0.5,0.6,0.9,1.5,1,2.7c0.1,0.3,0,0.6-0.2,0.9
	c-0.2,0.2-0.5,0.4-0.8,0.4c-0.3,0.1-0.6,0-0.8-0.2c-0.3-0.2-0.4-0.5-0.5-0.8c0-0.2-0.1-0.3-0.1-0.5c0-0.2-0.1-0.4-0.2-0.6
	c-0.1-0.2-0.2-0.4-0.3-0.5c-0.1-0.2-0.3-0.2-0.5-0.2h0c-0.4,0-0.8,0.2-1.4,0.6c-0.6,0.4-1.1,1-1.7,1.9c-0.6,0.8-1.2,1.8-1.7,3.1
	c-0.6,1.2-1,2.6-1.3,4.2c-0.3,1.2-0.3,2.2-0.1,3c0.2,0.7,0.5,1.2,0.8,1.5c0.3,0.2,0.6,0.3,0.8,0.3c0.3,0,0.5-0.1,0.7-0.2
	c0.4-0.2,0.8-0.5,1.2-1c0.4-0.5,0.8-1.1,1.2-1.9c0.4-0.8,0.7-1.7,0.9-2.8c0.3-1.1,0.4-2.4,0.5-3.9c0.1-0.4,0.2-0.7,0.5-0.9
	c0.3-0.2,0.7-0.3,1-0.2c0.3,0.1,0.7,0.2,1.2,0.3c0.5,0.1,1,0.2,1.5,0.2c0.5,0,1,0,1.5-0.1c0.4-0.1,0.7-0.2,0.9-0.4
	c0.3-1.7,0.7-3.7,1-5.8L41.6,8c0.1-0.3,0.2-0.6,0.5-0.8C42.3,7.1,42.6,7,43,7.1c0.3,0.1,0.5,0.2,0.7,0.5c0.2,0.3,0.2,0.6,0.2,0.9
	l-1.4,7.7c-0.4,2.4-0.8,4.5-1.1,6.4c-0.3,1.9-0.6,3.6-0.8,5c-0.1,0.7-0.2,1.4-0.2,2c-0.1,0.6-0.1,1.1-0.1,1.5c0,0.6,0,0.9,0,1
	c0.2-0.1,0.4-0.4,0.8-0.8c0.3-0.4,0.8-1,1.3-1.9c0.9-1.5,2-3.6,3.2-6.2c0.1-0.1,0.2-0.3,0.3-0.4c0.3-1.9,0.7-4,1.1-6.4l0-0.3
	c0.1-0.3,0.2-0.6,0.5-0.7c0.3-0.2,0.6-0.2,0.9-0.2c0.3,0.1,0.5,0.2,0.7,0.5c0.2,0.3,0.2,0.5,0.2,0.9l0,0.3c-0.4,2.3-0.8,4.4-1.1,6.2
	c-0.3,1.8-0.6,3.4-0.7,4.8c-0.1,0.7-0.2,1.3-0.2,1.8c0,0.5-0.1,1-0.1,1.4c0,0.2,0,0.4,0,0.6c0,0.2,0,0.3,0.1,0.4
	c0.2-0.1,0.4-0.4,0.8-0.8c0.3-0.4,0.8-1,1.3-1.9c0.5-0.8,1-1.7,1.5-2.7c0.5-1,1.1-2.2,1.7-3.5c0-0.1,0.1-0.2,0.2-0.3
	c0-0.1,0-0.1,0-0.2c0.4-2,0.8-4.4,1.3-7L55.3,8c0.1-0.3,0.2-0.6,0.5-0.8C56,7.1,56.3,7,56.6,7.1c0.3,0.1,0.5,0.2,0.7,0.5
	c0.2,0.3,0.2,0.6,0.2,0.9l-1.4,7.7c-0.4,2.4-0.8,4.5-1.1,6.4c-0.3,1.9-0.6,3.6-0.8,5c-0.1,0.7-0.2,1.4-0.2,2
	c-0.1,0.6-0.1,1.1-0.1,1.5c0,0.6,0,0.9,0,1c0.2-0.1,0.4-0.4,0.8-0.8c0.3-0.4,0.8-1,1.3-1.9c0.9-1.5,2-3.6,3.2-6.2
	c0.1-0.2,0.2-0.3,0.4-0.4c0-0.1,0.1-0.1,0.1-0.2c0.6-1.4,1.3-2.7,2.1-3.7c0.7-1,1.5-1.8,2.4-2.4c0.9-0.7,1.8-1,2.7-1
	c0.9,0.1,1.7,0.4,2.2,1.2c0.5,0.6,0.9,1.5,1,2.7c0.1,0.3,0,0.6-0.2,0.9c-0.2,0.2-0.5,0.4-0.8,0.4c-0.3,0.1-0.6,0-0.8-0.2
	c-0.3-0.2-0.4-0.5-0.5-0.8c0-0.2-0.1-0.3-0.1-0.5c0-0.2-0.1-0.4-0.2-0.6c-0.1-0.2-0.2-0.4-0.3-0.5c-0.1-0.2-0.3-0.2-0.5-0.2h0
	c-0.4,0-0.8,0.2-1.4,0.6c-0.6,0.4-1.1,1-1.7,1.9C63,21,62.5,22,61.9,23.2c-0.6,1.2-1,2.6-1.3,4.2c-0.3,1.2-0.3,2.2-0.1,3
	c0.2,0.7,0.5,1.2,0.8,1.5c0.3,0.2,0.6,0.3,0.8,0.3c0.3,0,0.5-0.1,0.7-0.2c0.4-0.2,0.8-0.5,1.2-1c0.4-0.5,0.8-1.1,1.2-1.9
	c0.4-0.8,0.7-1.7,0.9-2.8c0.3-1.1,0.4-2.4,0.5-3.9c0.1-0.4,0.2-0.7,0.5-0.9c0.3-0.2,0.7-0.3,1-0.2c0.3,0.1,0.7,0.2,1.2,0.3
	c0.5,0.1,1,0.2,1.5,0.2c0.5,0,1,0,1.5-0.1c0.5-0.1,0.8-0.2,1.1-0.5c0.1-0.1,0.3-0.2,0.5-0.2c0.4-0.9,0.9-1.8,1.5-2.5
	c1.5-2.1,3.1-3.2,4.7-3.4c0.6,0,1.2,0.1,1.8,0.4c0.3-0.3,0.6-0.5,1.1-0.4c0.3,0.1,0.6,0.2,0.8,0.5C83.9,15.9,84,16.2,83.9,16.5z
	 M81.3,18.3c-0.2-0.4-0.4-0.7-0.6-0.7c-0.2-0.1-0.3-0.1-0.4-0.1c-0.4,0-0.8,0.2-1.3,0.6c-0.5,0.4-1.1,1-1.8,1.9
	c-0.7,0.9-1.2,1.9-1.7,3.1c-0.5,1.2-0.8,2.4-1.1,3.7c-0.2,0.8-0.3,1.5-0.3,2.2c0,0.6,0,1.2,0.1,1.6c0.1,0.5,0.2,0.8,0.4,1.1
	c0.2,0.3,0.4,0.4,0.6,0.5c0.2,0.1,0.6-0.1,1-0.3c0.4-0.3,0.9-0.8,1.4-1.5s1-1.8,1.5-3.1c0.5-1.3,1-2.9,1.4-4.9v-0.1L81.3,18.3z
	 M24.8,14.1c0.2-1.9-0.2-3.5-1.1-4.8c-0.8-1.2-1.9-2-3.4-2.2c-0.7-0.1-1.3-0.1-2,0.1c-0.6,0.2-1.2,0.5-1.8,0.9
	c-1.2,0.9-2,2.2-2.3,3.9c-0.2,0.8-0.3,1.7-0.3,2.6c0,0.9,0.2,2,0.5,3.1c0.2,1,0.5,1.9,0.8,2.9c0.3,1,0.7,1.9,1,2.9
	c0.4,1.1,0.8,2.2,1.2,3.3c0.4,1.1,0.7,2.2,0.9,3.3c0.2,1.1,0.3,2.2,0.3,3.2c0,1.1-0.2,2.1-0.5,3.1c-0.4,1.2-1.2,2.3-2.3,3.1
	c-1.1,0.9-2.4,1.5-3.9,1.8c-1.6,0.3-3.1,0.3-4.6-0.1c-1.5-0.4-2.7-1.1-3.6-2.1c-0.5-0.5-0.8-1.1-1.1-1.7c-0.2-0.6-0.4-1.2-0.4-1.8
	c-0.1-0.6,0-1.2,0.1-1.9c0.1-0.6,0.2-1.2,0.4-1.7c0.5-1.3,1.1-2.4,2.1-3.3s1.9-1.4,3-1.5h0c0.6-0.1,1.2-0.1,2,0.1s1.3,0.5,1.9,0.9
	c0.3,0.2,0.5,0.5,0.8,0.8s0.4,0.8,0.5,1.3c0.1,0.3,0.2,0.6,0.4,0.8s0.5,0.3,0.8,0.3c0.3-0.1,0.6-0.2,0.8-0.4
	c0.2-0.2,0.3-0.5,0.2-0.8c-0.1-0.7-0.3-1.4-0.6-2c-0.4-0.6-0.9-1.2-1.5-1.7c-0.8-0.6-1.7-1-2.7-1.3c-1-0.3-2-0.3-2.9-0.2
	c-0.8,0.1-1.5,0.4-2.2,0.7c-0.7,0.4-1.4,0.8-2,1.5c-1.1,1.1-2,2.5-2.6,4.1c-0.6,1.6-0.8,3.3-0.6,4.9C0.3,38,1,39.5,2.2,40.7
	c0.6,0.7,1.4,1.2,2.2,1.7S6,43.3,7,43.6c0.9,0.2,1.9,0.3,2.9,0.3c0.9,0,1.8-0.1,2.6-0.3c0.9-0.2,1.7-0.5,2.6-0.8
	c0.8-0.4,1.6-0.8,2.3-1.3c0.7-0.6,1.4-1.2,1.9-2c0.5-0.7,0.9-1.5,1.2-2.3c0.8-2.2,0.9-4.7,0.3-7.4c-0.2-1.2-0.5-2.4-0.9-3.6
	c-0.4-1.2-0.8-2.4-1.2-3.5c-0.4-0.9-0.7-1.9-1-2.8c-0.3-0.9-0.6-1.8-0.8-2.7c-0.2-0.9-0.3-1.7-0.4-2.5c-0.1-0.8,0-1.6,0.2-2.3
	c0.3-1.2,0.8-2.1,1.5-2.6c0.6-0.5,1.3-0.7,2-0.6c0.7,0.1,1.3,0.5,1.8,1.2c0.6,0.9,0.8,2,0.7,3.4c0,0.3,0.1,0.6,0.3,0.8
	c0.2,0.2,0.5,0.4,0.8,0.4c0.3,0,0.6-0.1,0.8-0.3C24.7,14.7,24.8,14.4,24.8,14.1z"/>
</svg>
