<?xml version="1.0" encoding="utf-8"?>
<!-- Generator: Adobe Illustrator 21.0.0, SVG Export Plug-In . SVG Version: 6.00 Build 0)  -->
<svg version="1.1" id="Camada_1" xmlns="http://www.w3.org/2000/svg" xmlns:xlink="http://www.w3.org/1999/xlink" x="0px" y="0px"
	 viewBox="0 0 80 80" style="enable-background:new 0 0 80 80;" xml:space="preserve">
<path id="youtube" d="M62.4,0H17.6C7.9,0,0,7.9,0,17.6v44.8C0,72.1,7.9,80,17.6,80h44.8C72.1,80,80,72.1,80,62.4V17.6
	C80,7.9,72.1,0,62.4,0z M66.1,53.1c-0.6,2.3-2.5,4.1-4.8,4.7C57,58.9,40,58.9,40,58.9s-17,0-21.3-1.1c-2.3-0.6-4.2-2.4-4.8-4.7
	c-1.1-4.2-1.1-13-1.1-13s0-8.8,1.1-13c0.6-2.3,2.5-4.2,4.8-4.8C23,21.1,40,21.1,40,21.1s17,0,21.3,1.1c2.3,0.6,4.2,2.5,4.8,4.8
	c1.1,4.2,1.1,13,1.1,13S67.2,48.9,66.1,53.1z M34.4,32l14.2,8l-14.2,8V32z"/>
</svg>
