<?xml version="1.0" encoding="utf-8"?>
<!-- Generator: Adobe Illustrator 21.0.0, SVG Export Plug-In . SVG Version: 6.00 Build 0)  -->
<svg version="1.1" id="Camada_1" xmlns="http://www.w3.org/2000/svg" xmlns:xlink="http://www.w3.org/1999/xlink" x="0px" y="0px"
	 viewBox="0 0 40 40" style="enable-background:new 0 0 40 40;" xml:space="preserve">
<g>
	<polygon points="17.2,24 24.3,20 17.2,16 	"/>
	<path d="M31.2,0H8.8C4,0,0,4,0,8.8v22.4C0,36,4,40,8.8,40h22.4c4.8,0,8.8-4,8.8-8.8V8.8C40,4,36,0,31.2,0z M33,26.5
		c-0.3,1.1-1.3,2-2.4,2.4C28.5,29.5,20,29.5,20,29.5s-8.5,0-10.6-0.5c-1.1-0.3-2.1-1.2-2.4-2.4c-0.6-2.1-0.6-6.5-0.6-6.5
		s0-4.4,0.6-6.5c0.3-1.1,1.3-2.1,2.4-2.4c2.1-0.6,10.6-0.6,10.6-0.6s8.5,0,10.6,0.6c1.1,0.3,2.1,1.3,2.4,2.4
		c0.5,2.1,0.5,6.5,0.5,6.5S33.6,24.5,33,26.5z"/>
</g>
</svg>
